<svg width="136" height="189" viewBox="0 0 136 189" fill="none" xmlns="http://www.w3.org/2000/svg">
<rect width="136" height="189" rx="8.5" fill="#646464"/>
<path d="M64.0078 77.8408C64.7244 77.4271 65.6409 77.6731 66.0547 78.3896L71.8701 88.4619L66.7646 94.6016L59.5674 82.1357C59.1537 81.4193 59.3989 80.5027 60.1152 80.0889L64.0078 77.8408ZM35.8037 66.4443C36.5207 66.0314 37.4375 66.2772 37.8506 66.9941L46.6133 82.208C46.9464 82.7863 47.0068 83.0311 47.0156 83.3076C47.0244 83.5842 46.9538 83.8461 46.8076 84.0811C46.6615 84.3159 46.4869 84.4975 45.9092 84.8311L41.1006 87.6064L30.6123 69.4414L35.8037 66.4443ZM59.8926 52.7676C60.1692 52.7586 60.4309 52.8295 60.666 52.9756C60.9011 53.1217 61.0822 53.2968 61.416 53.875L69.9834 68.7139C70.3172 69.292 70.3787 69.5368 70.3877 69.8135C70.3966 70.0901 70.3258 70.3519 70.1797 70.5869C70.0336 70.8219 69.8584 71.0031 69.2803 71.3369L51.8975 81.373C51.3207 81.706 51.0768 81.767 50.8008 81.7764C50.5246 81.7857 50.2624 81.7167 50.0273 81.5713C49.7924 81.4259 49.6115 81.2509 49.2764 80.6748L40.4473 65.499C40.0313 64.784 40.2734 63.8674 40.9883 63.4512L40.9932 63.4482L58.793 53.1719C59.3713 52.838 59.6159 52.7766 59.8926 52.7676ZM80.0264 65.1328L75.2188 67.9092C74.6407 68.2429 74.3957 68.3034 74.1191 68.3125C73.8426 68.3215 73.5808 68.2513 73.3457 68.1055C73.1108 67.9597 72.9296 67.7849 72.5957 67.208L63.8008 52.0117C63.3865 51.2956 63.6316 50.3793 64.3477 49.9648L64.3486 49.9639L69.5391 46.9678L80.0264 65.1328Z" fill="black"/>
<path d="M71.0186 110.761C70.302 111.174 69.3854 110.929 68.9717 110.212L63.1562 100.14L68.2617 94L75.459 106.466C75.8726 107.182 75.6275 108.099 74.9111 108.513L71.0186 110.761ZM99.2227 122.157C98.5057 122.57 97.5888 122.324 97.1758 121.607L88.4131 106.394C88.08 105.815 88.0196 105.57 88.0107 105.294C88.0019 105.017 88.0726 104.755 88.2188 104.521C88.3649 104.286 88.5395 104.104 89.1172 103.771L93.9258 100.995L104.414 119.16L99.2227 122.157ZM75.1338 135.834C74.8572 135.843 74.5954 135.772 74.3604 135.626C74.1253 135.48 73.9442 135.305 73.6104 134.727L65.043 119.888C64.7092 119.31 64.6477 119.065 64.6387 118.788C64.6298 118.512 64.7006 118.25 64.8467 118.015C64.9928 117.78 65.168 117.598 65.7461 117.265L83.1289 107.229C83.7057 106.896 83.9496 106.835 84.2256 106.825C84.5018 106.816 84.764 106.885 84.999 107.03C85.234 107.176 85.4149 107.351 85.75 107.927L94.5791 123.103C94.9951 123.818 94.7529 124.734 94.0381 125.15L94.0332 125.153L76.2334 135.43C75.6551 135.764 75.4105 135.825 75.1338 135.834ZM55 123.469L59.8076 120.692C60.3857 120.359 60.6307 120.298 60.9072 120.289C61.1837 120.28 61.4456 120.35 61.6807 120.496C61.9155 120.642 62.0967 120.817 62.4307 121.394L71.2256 136.59C71.6399 137.306 71.3948 138.222 70.6787 138.637L70.6777 138.638L65.4873 141.634L55 123.469Z" fill="black"/>
<path d="M88.711 10.628H91.195C91.435 10.628 91.672 10.658 91.906 10.718C92.14 10.772 92.347 10.865 92.527 10.997C92.713 11.123 92.863 11.288 92.977 11.492C93.091 11.696 93.148 11.942 93.148 12.23C93.148 12.59 93.046 12.887 92.842 13.121C92.638 13.355 92.371 13.523 92.041 13.625V13.643C92.239 13.667 92.422 13.724 92.59 13.814C92.764 13.898 92.911 14.009 93.031 14.147C93.151 14.279 93.244 14.435 93.31 14.615C93.382 14.789 93.418 14.978 93.418 15.182C93.418 15.53 93.349 15.821 93.211 16.055C93.073 16.283 92.89 16.469 92.662 16.613C92.44 16.751 92.182 16.85 91.888 16.91C91.6 16.97 91.306 17 91.006 17H88.711V10.628ZM89.845 13.22H90.88C91.258 13.22 91.54 13.148 91.726 13.004C91.918 12.854 92.014 12.659 92.014 12.419C92.014 12.143 91.915 11.939 91.717 11.807C91.525 11.669 91.213 11.6 90.781 11.6H89.845V13.22ZM89.845 16.028H90.889C91.033 16.028 91.186 16.019 91.348 16.001C91.516 15.983 91.669 15.941 91.807 15.875C91.945 15.809 92.059 15.716 92.149 15.596C92.239 15.47 92.284 15.302 92.284 15.092C92.284 14.756 92.173 14.522 91.951 14.39C91.735 14.258 91.396 14.192 90.934 14.192H89.845V16.028ZM97.1479 16.406H97.1209C96.9649 16.652 96.7669 16.832 96.5269 16.946C96.2869 17.054 96.0229 17.108 95.7349 17.108C95.5369 17.108 95.3419 17.081 95.1499 17.027C94.9639 16.973 94.7959 16.892 94.6459 16.784C94.5019 16.676 94.3849 16.541 94.2949 16.379C94.2049 16.217 94.1599 16.028 94.1599 15.812C94.1599 15.578 94.2019 15.38 94.2859 15.218C94.3699 15.05 94.4809 14.912 94.6189 14.804C94.7629 14.69 94.9279 14.6 95.1139 14.534C95.2999 14.468 95.4919 14.42 95.6899 14.39C95.8939 14.354 96.0979 14.333 96.3019 14.327C96.5059 14.315 96.6979 14.309 96.8779 14.309H97.1479V14.192C97.1479 13.922 97.0549 13.721 96.8689 13.589C96.6829 13.451 96.4459 13.382 96.1579 13.382C95.9299 13.382 95.7169 13.424 95.5189 13.508C95.3209 13.586 95.1499 13.694 95.0059 13.832L94.4389 13.265C94.6789 13.019 94.9579 12.842 95.2759 12.734C95.5999 12.626 95.9329 12.572 96.2749 12.572C96.5809 12.572 96.8389 12.608 97.0489 12.68C97.2589 12.746 97.4329 12.833 97.5709 12.941C97.7089 13.049 97.8139 13.175 97.8859 13.319C97.9639 13.457 98.0179 13.598 98.0479 13.742C98.0839 13.886 98.1049 14.027 98.1109 14.165C98.1169 14.297 98.1199 14.414 98.1199 14.516V17H97.1479V16.406ZM97.0849 15.065H96.8599C96.7099 15.065 96.5419 15.071 96.3559 15.083C96.1699 15.095 95.9929 15.125 95.8249 15.173C95.6629 15.215 95.5249 15.281 95.4109 15.371C95.2969 15.455 95.2399 15.575 95.2399 15.731C95.2399 15.833 95.2609 15.92 95.3029 15.992C95.3509 16.058 95.4109 16.115 95.4829 16.163C95.5549 16.211 95.6359 16.247 95.7259 16.271C95.8159 16.289 95.9059 16.298 95.9959 16.298C96.3679 16.298 96.6409 16.211 96.8149 16.037C96.9949 15.857 97.0849 15.614 97.0849 15.308V15.065ZM102.234 13.976C102.108 13.844 101.976 13.739 101.838 13.661C101.7 13.583 101.559 13.544 101.415 13.544C101.217 13.544 101.04 13.58 100.884 13.652C100.728 13.724 100.593 13.82 100.479 13.94C100.371 14.06 100.287 14.198 100.227 14.354C100.173 14.51 100.146 14.672 100.146 14.84C100.146 15.008 100.173 15.17 100.227 15.326C100.287 15.482 100.371 15.62 100.479 15.74C100.593 15.86 100.728 15.956 100.884 16.028C101.04 16.1 101.217 16.136 101.415 16.136C101.583 16.136 101.739 16.103 101.883 16.037C102.027 15.965 102.15 15.863 102.252 15.731L102.972 16.505C102.864 16.613 102.738 16.706 102.594 16.784C102.456 16.862 102.315 16.925 102.171 16.973C102.027 17.021 101.889 17.054 101.757 17.072C101.625 17.096 101.511 17.108 101.415 17.108C101.091 17.108 100.785 17.054 100.497 16.946C100.209 16.838 99.9599 16.685 99.7499 16.487C99.5399 16.289 99.3719 16.052 99.2459 15.776C99.1259 15.494 99.0659 15.182 99.0659 14.84C99.0659 14.498 99.1259 14.189 99.2459 13.913C99.3719 13.631 99.5399 13.391 99.7499 13.193C99.9599 12.995 100.209 12.842 100.497 12.734C100.785 12.626 101.091 12.572 101.415 12.572C101.691 12.572 101.967 12.626 102.243 12.734C102.525 12.836 102.771 13.001 102.981 13.229L102.234 13.976ZM103.624 10.196H104.704V14.471L106.369 12.68H107.755L105.901 14.642L107.872 17H106.441L104.722 14.795H104.704V17H103.624V10.196ZM109.322 15.218C109.358 15.542 109.484 15.794 109.7 15.974C109.916 16.154 110.177 16.244 110.483 16.244C110.753 16.244 110.978 16.19 111.158 16.082C111.344 15.968 111.506 15.827 111.644 15.659L112.418 16.244C112.166 16.556 111.884 16.778 111.572 16.91C111.26 17.042 110.933 17.108 110.591 17.108C110.267 17.108 109.961 17.054 109.673 16.946C109.385 16.838 109.136 16.685 108.926 16.487C108.716 16.289 108.548 16.052 108.422 15.776C108.302 15.494 108.242 15.182 108.242 14.84C108.242 14.498 108.302 14.189 108.422 13.913C108.548 13.631 108.716 13.391 108.926 13.193C109.136 12.995 109.385 12.842 109.673 12.734C109.961 12.626 110.267 12.572 110.591 12.572C110.891 12.572 111.164 12.626 111.41 12.734C111.662 12.836 111.875 12.986 112.049 13.184C112.229 13.382 112.367 13.628 112.463 13.922C112.565 14.21 112.616 14.543 112.616 14.921V15.218H109.322ZM111.536 14.408C111.53 14.09 111.431 13.841 111.239 13.661C111.047 13.475 110.78 13.382 110.438 13.382C110.114 13.382 109.856 13.475 109.664 13.661C109.478 13.847 109.364 14.096 109.322 14.408H111.536ZM113.626 12.68H114.652V13.373H114.67C114.772 13.157 114.928 12.971 115.138 12.815C115.348 12.653 115.633 12.572 115.993 12.572C116.281 12.572 116.524 12.62 116.722 12.716C116.926 12.812 117.091 12.938 117.217 13.094C117.343 13.25 117.433 13.43 117.487 13.634C117.541 13.838 117.568 14.051 117.568 14.273V17H116.488V14.813C116.488 14.693 116.482 14.561 116.47 14.417C116.458 14.267 116.425 14.129 116.371 14.003C116.323 13.871 116.245 13.763 116.137 13.679C116.029 13.589 115.882 13.544 115.696 13.544C115.516 13.544 115.363 13.574 115.237 13.634C115.117 13.694 115.015 13.775 114.931 13.877C114.853 13.979 114.796 14.096 114.76 14.228C114.724 14.36 114.706 14.498 114.706 14.642V17H113.626V12.68ZM122.214 16.352H122.196C122.04 16.616 121.83 16.808 121.566 16.928C121.302 17.048 121.017 17.108 120.711 17.108C120.375 17.108 120.075 17.051 119.811 16.937C119.553 16.817 119.331 16.655 119.145 16.451C118.959 16.247 118.818 16.007 118.722 15.731C118.626 15.455 118.578 15.158 118.578 14.84C118.578 14.522 118.629 14.225 118.731 13.949C118.833 13.673 118.974 13.433 119.154 13.229C119.34 13.025 119.562 12.866 119.82 12.752C120.078 12.632 120.36 12.572 120.666 12.572C120.87 12.572 121.05 12.593 121.206 12.635C121.362 12.677 121.5 12.731 121.62 12.797C121.74 12.863 121.842 12.935 121.926 13.013C122.01 13.085 122.079 13.157 122.133 13.229H122.16V10.196H123.24V17H122.214V16.352ZM119.658 14.84C119.658 15.008 119.685 15.17 119.739 15.326C119.799 15.482 119.883 15.62 119.991 15.74C120.105 15.86 120.24 15.956 120.396 16.028C120.552 16.1 120.729 16.136 120.927 16.136C121.125 16.136 121.302 16.1 121.458 16.028C121.614 15.956 121.746 15.86 121.854 15.74C121.968 15.62 122.052 15.482 122.106 15.326C122.166 15.17 122.196 15.008 122.196 14.84C122.196 14.672 122.166 14.51 122.106 14.354C122.052 14.198 121.968 14.06 121.854 13.94C121.746 13.82 121.614 13.724 121.458 13.652C121.302 13.58 121.125 13.544 120.927 13.544C120.729 13.544 120.552 13.58 120.396 13.652C120.24 13.724 120.105 13.82 119.991 13.94C119.883 14.06 119.799 14.198 119.739 14.354C119.685 14.51 119.658 14.672 119.658 14.84Z" fill="black"/>
<path d="M47.289 178.372H44.805C44.565 178.372 44.328 178.342 44.094 178.282C43.86 178.228 43.653 178.135 43.473 178.003C43.287 177.877 43.137 177.712 43.023 177.508C42.909 177.304 42.852 177.058 42.852 176.77C42.852 176.41 42.954 176.113 43.158 175.879C43.362 175.645 43.629 175.477 43.959 175.375V175.357C43.761 175.333 43.578 175.276 43.41 175.186C43.236 175.102 43.089 174.991 42.969 174.853C42.849 174.721 42.756 174.565 42.69 174.385C42.618 174.211 42.582 174.022 42.582 173.818C42.582 173.47 42.651 173.179 42.789 172.945C42.927 172.717 43.11 172.531 43.338 172.387C43.56 172.249 43.818 172.15 44.112 172.09C44.4 172.03 44.694 172 44.994 172H47.289V178.372ZM46.155 175.78H45.12C44.742 175.78 44.46 175.852 44.274 175.996C44.082 176.146 43.986 176.341 43.986 176.581C43.986 176.857 44.085 177.061 44.283 177.193C44.475 177.331 44.787 177.4 45.219 177.4H46.155V175.78ZM46.155 172.972H45.111C44.967 172.972 44.814 172.981 44.652 172.999C44.484 173.017 44.331 173.059 44.193 173.125C44.055 173.191 43.941 173.284 43.851 173.404C43.761 173.53 43.716 173.698 43.716 173.908C43.716 174.244 43.827 174.478 44.049 174.61C44.265 174.742 44.604 174.808 45.066 174.808H46.155V172.972ZM38.8521 172.594H38.8791C39.0351 172.348 39.2331 172.168 39.4731 172.054C39.7131 171.946 39.9771 171.892 40.2651 171.892C40.4631 171.892 40.6581 171.919 40.8501 171.973C41.0361 172.027 41.2041 172.108 41.3541 172.216C41.4981 172.324 41.6151 172.459 41.7051 172.621C41.7951 172.783 41.8401 172.972 41.8401 173.188C41.8401 173.422 41.7981 173.62 41.7141 173.782C41.6301 173.95 41.5191 174.088 41.3811 174.196C41.2371 174.31 41.0721 174.4 40.8861 174.466C40.7001 174.532 40.5081 174.58 40.3101 174.61C40.1061 174.646 39.9021 174.667 39.6981 174.673C39.4941 174.685 39.3021 174.691 39.1221 174.691H38.8521V174.808C38.8521 175.078 38.9451 175.279 39.1311 175.411C39.3171 175.549 39.5541 175.618 39.8421 175.618C40.0701 175.618 40.2831 175.576 40.4811 175.492C40.6791 175.414 40.8501 175.306 40.9941 175.168L41.5611 175.735C41.3211 175.981 41.0421 176.158 40.7241 176.266C40.4001 176.374 40.0671 176.428 39.7251 176.428C39.4191 176.428 39.1611 176.392 38.9511 176.32C38.7411 176.254 38.5671 176.167 38.4291 176.059C38.2911 175.951 38.1861 175.825 38.1141 175.681C38.0361 175.543 37.9821 175.402 37.9521 175.258C37.9161 175.114 37.8951 174.973 37.8891 174.835C37.8831 174.703 37.8801 174.586 37.8801 174.484V172H38.8521V172.594ZM38.9151 173.935H39.1401C39.2901 173.935 39.4581 173.929 39.6441 173.917C39.8301 173.905 40.0071 173.875 40.1751 173.827C40.3371 173.785 40.4751 173.719 40.5891 173.629C40.7031 173.545 40.7601 173.425 40.7601 173.269C40.7601 173.167 40.7391 173.08 40.6971 173.008C40.6491 172.942 40.5891 172.885 40.5171 172.837C40.4451 172.789 40.3641 172.753 40.2741 172.729C40.1841 172.711 40.0941 172.702 40.0041 172.702C39.6321 172.702 39.3591 172.789 39.1851 172.963C39.0051 173.143 38.9151 173.386 38.9151 173.692V173.935ZM33.7661 175.024C33.8921 175.156 34.0241 175.261 34.1621 175.339C34.3001 175.417 34.4411 175.456 34.5851 175.456C34.7831 175.456 34.9601 175.42 35.1161 175.348C35.2721 175.276 35.4071 175.18 35.5211 175.06C35.6291 174.94 35.7131 174.802 35.7731 174.646C35.8271 174.49 35.8541 174.328 35.8541 174.16C35.8541 173.992 35.8271 173.83 35.7731 173.674C35.7131 173.518 35.6291 173.38 35.5211 173.26C35.4071 173.14 35.2721 173.044 35.1161 172.972C34.9601 172.9 34.7831 172.864 34.5851 172.864C34.4171 172.864 34.2611 172.897 34.1171 172.963C33.9731 173.035 33.8501 173.137 33.7481 173.269L33.0281 172.495C33.1361 172.387 33.2621 172.294 33.4061 172.216C33.5441 172.138 33.6851 172.075 33.8291 172.027C33.9731 171.979 34.1111 171.946 34.2431 171.928C34.3751 171.904 34.4891 171.892 34.5851 171.892C34.9091 171.892 35.2151 171.946 35.5031 172.054C35.7911 172.162 36.0401 172.315 36.2501 172.513C36.4601 172.711 36.6281 172.948 36.7541 173.224C36.8741 173.506 36.9341 173.818 36.9341 174.16C36.9341 174.502 36.8741 174.811 36.7541 175.087C36.6281 175.369 36.4601 175.609 36.2501 175.807C36.0401 176.005 35.7911 176.158 35.5031 176.266C35.2151 176.374 34.9091 176.428 34.5851 176.428C34.3091 176.428 34.0331 176.374 33.7571 176.266C33.4751 176.164 33.2291 175.999 33.0191 175.771L33.7661 175.024ZM32.3763 178.804H31.2963V174.529L29.6313 176.32H28.2453L30.0993 174.358L28.1283 172H29.5593L31.2783 174.205H31.2963V172H32.3763V178.804ZM26.6783 173.782C26.6423 173.458 26.5163 173.206 26.3003 173.026C26.0843 172.846 25.8233 172.756 25.5173 172.756C25.2473 172.756 25.0223 172.81 24.8423 172.918C24.6563 173.032 24.4943 173.173 24.3563 173.341L23.5823 172.756C23.8343 172.444 24.1163 172.222 24.4283 172.09C24.7403 171.958 25.0673 171.892 25.4093 171.892C25.7333 171.892 26.0393 171.946 26.3273 172.054C26.6153 172.162 26.8643 172.315 27.0743 172.513C27.2843 172.711 27.4523 172.948 27.5783 173.224C27.6983 173.506 27.7583 173.818 27.7583 174.16C27.7583 174.502 27.6983 174.811 27.5783 175.087C27.4523 175.369 27.2843 175.609 27.0743 175.807C26.8643 176.005 26.6153 176.158 26.3273 176.266C26.0393 176.374 25.7333 176.428 25.4093 176.428C25.1093 176.428 24.8363 176.374 24.5903 176.266C24.3383 176.164 24.1253 176.014 23.9513 175.816C23.7713 175.618 23.6333 175.372 23.5373 175.078C23.4353 174.79 23.3843 174.457 23.3843 174.079V173.782H26.6783ZM24.4643 174.592C24.4703 174.91 24.5693 175.159 24.7613 175.339C24.9533 175.525 25.2203 175.618 25.5623 175.618C25.8863 175.618 26.1443 175.525 26.3363 175.339C26.5223 175.153 26.6363 174.904 26.6783 174.592H24.4643ZM22.3743 176.32H21.3483V175.627H21.3303C21.2283 175.843 21.0723 176.029 20.8623 176.185C20.6523 176.347 20.3673 176.428 20.0073 176.428C19.7193 176.428 19.4763 176.38 19.2783 176.284C19.0743 176.188 18.9093 176.062 18.7833 175.906C18.6573 175.75 18.5673 175.57 18.5133 175.366C18.4593 175.162 18.4323 174.949 18.4323 174.727V172H19.5123V174.187C19.5123 174.307 19.5183 174.439 19.5303 174.583C19.5423 174.733 19.5753 174.871 19.6293 174.997C19.6773 175.129 19.7553 175.237 19.8633 175.321C19.9713 175.411 20.1183 175.456 20.3043 175.456C20.4843 175.456 20.6373 175.426 20.7633 175.366C20.8833 175.306 20.9853 175.225 21.0693 175.123C21.1473 175.021 21.2043 174.904 21.2403 174.772C21.2763 174.64 21.2943 174.502 21.2943 174.358V172H22.3743V176.32ZM13.7864 172.648H13.8044C13.9604 172.384 14.1704 172.192 14.4344 172.072C14.6984 171.952 14.9834 171.892 15.2894 171.892C15.6254 171.892 15.9254 171.949 16.1894 172.063C16.4474 172.183 16.6694 172.345 16.8554 172.549C17.0414 172.753 17.1824 172.993 17.2784 173.269C17.3744 173.545 17.4224 173.842 17.4224 174.16C17.4224 174.478 17.3714 174.775 17.2694 175.051C17.1674 175.327 17.0264 175.567 16.8464 175.771C16.6604 175.975 16.4384 176.134 16.1804 176.248C15.9224 176.368 15.6404 176.428 15.3344 176.428C15.1304 176.428 14.9504 176.407 14.7944 176.365C14.6384 176.323 14.5004 176.269 14.3804 176.203C14.2604 176.137 14.1584 176.065 14.0744 175.987C13.9904 175.915 13.9214 175.843 13.8674 175.771H13.8404V178.804H12.7604V172H13.7864V172.648ZM16.3424 174.16C16.3424 173.992 16.3154 173.83 16.2614 173.674C16.2014 173.518 16.1174 173.38 16.0094 173.26C15.8954 173.14 15.7604 173.044 15.6044 172.972C15.4484 172.9 15.2714 172.864 15.0734 172.864C14.8754 172.864 14.6984 172.9 14.5424 172.972C14.3864 173.044 14.2544 173.14 14.1464 173.26C14.0324 173.38 13.9484 173.518 13.8944 173.674C13.8344 173.83 13.8044 173.992 13.8044 174.16C13.8044 174.328 13.8344 174.49 13.8944 174.646C13.9484 174.802 14.0324 174.94 14.1464 175.06C14.2544 175.18 14.3864 175.276 14.5424 175.348C14.6984 175.42 14.8754 175.456 15.0734 175.456C15.2714 175.456 15.4484 175.42 15.6044 175.348C15.7604 175.276 15.8954 175.18 16.0094 175.06C16.1174 174.94 16.2014 174.802 16.2614 174.646C16.3154 174.49 16.3424 174.328 16.3424 174.16Z" fill="black"/>
<path d="M28 142L107 47" stroke="black" stroke-linecap="round"/>
<path d="M17.9975 19.1429C18.2737 19.1429 18.4143 18.9571 18.6956 18.5754L21.6939 14.5726C21.8295 14.3868 21.9098 14.2009 21.9098 14C21.9098 13.7941 21.8295 13.6133 21.6939 13.4275L18.6956 9.41968C18.4143 9.04301 18.2737 8.85718 17.9975 8.85718C17.7263 8.85718 17.5856 9.04301 17.3044 9.41968L14.306 13.4275C14.1704 13.6133 14.0901 13.7941 14.0901 14C14.0901 14.2009 14.1704 14.3868 14.306 14.5726L17.3044 18.5754C17.5856 18.9571 17.7263 19.1429 17.9975 19.1429Z" fill="#D6FB30"/>
<path d="M118.003 169.857C117.726 169.857 117.586 170.043 117.304 170.425L114.306 174.427C114.171 174.613 114.09 174.799 114.09 175C114.09 175.206 114.171 175.387 114.306 175.573L117.304 179.58C117.586 179.957 117.726 180.143 118.003 180.143C118.274 180.143 118.414 179.957 118.696 179.58L121.694 175.573C121.83 175.387 121.91 175.206 121.91 175C121.91 174.799 121.83 174.613 121.694 174.427L118.696 170.425C118.414 170.043 118.274 169.857 118.003 169.857Z" fill="#D6FB30"/>
</svg>
