<svg width="136" height="189" viewBox="0 0 136 189" fill="none" xmlns="http://www.w3.org/2000/svg">
<rect width="136" height="189" rx="8.5" fill="#646464"/>
<path d="M73.814 14.66C73.814 15.044 73.748 15.392 73.616 15.704C73.484 16.01 73.304 16.271 73.076 16.487C72.848 16.703 72.578 16.871 72.266 16.991C71.954 17.105 71.615 17.162 71.249 17.162C70.883 17.162 70.544 17.105 70.232 16.991C69.92 16.871 69.647 16.703 69.413 16.487C69.185 16.271 69.005 16.01 68.873 15.704C68.747 15.392 68.684 15.044 68.684 14.66V10.628H69.818V14.624C69.818 14.78 69.842 14.945 69.89 15.119C69.938 15.287 70.016 15.443 70.124 15.587C70.238 15.731 70.385 15.851 70.565 15.947C70.751 16.037 70.979 16.082 71.249 16.082C71.519 16.082 71.744 16.037 71.924 15.947C72.11 15.851 72.257 15.731 72.365 15.587C72.479 15.443 72.56 15.287 72.608 15.119C72.656 14.945 72.68 14.78 72.68 14.624V10.628H73.814V14.66ZM75.1791 10.628H76.3131V17H75.1791V10.628ZM77.666 17.432L76.919 17.162L79.727 10.178L80.474 10.466L77.666 17.432ZM86.312 14.66C86.312 15.044 86.246 15.392 86.114 15.704C85.982 16.01 85.802 16.271 85.574 16.487C85.346 16.703 85.076 16.871 84.764 16.991C84.452 17.105 84.113 17.162 83.747 17.162C83.381 17.162 83.042 17.105 82.73 16.991C82.418 16.871 82.145 16.703 81.911 16.487C81.683 16.271 81.503 16.01 81.371 15.704C81.245 15.392 81.182 15.044 81.182 14.66V10.628H82.316V14.624C82.316 14.78 82.34 14.945 82.388 15.119C82.436 15.287 82.514 15.443 82.622 15.587C82.736 15.731 82.883 15.851 83.063 15.947C83.249 16.037 83.477 16.082 83.747 16.082C84.017 16.082 84.242 16.037 84.422 15.947C84.608 15.851 84.755 15.731 84.863 15.587C84.977 15.443 85.058 15.287 85.106 15.119C85.154 14.945 85.178 14.78 85.178 14.624V10.628H86.312V14.66ZM89.2612 13.67L87.1372 10.628H88.5682L90.0712 12.986L91.5562 10.628H92.9332L90.8452 13.67L93.1582 17H91.7182L90.0352 14.309L88.3612 17H86.9932L89.2612 13.67ZM99.8494 16.352H99.8314C99.6754 16.616 99.4654 16.808 99.2014 16.928C98.9374 17.048 98.6524 17.108 98.3464 17.108C98.0104 17.108 97.7104 17.051 97.4464 16.937C97.1884 16.817 96.9664 16.655 96.7804 16.451C96.5944 16.247 96.4534 16.007 96.3574 15.731C96.2614 15.455 96.2134 15.158 96.2134 14.84C96.2134 14.522 96.2644 14.225 96.3664 13.949C96.4684 13.673 96.6094 13.433 96.7894 13.229C96.9754 13.025 97.1974 12.866 97.4554 12.752C97.7134 12.632 97.9954 12.572 98.3014 12.572C98.5054 12.572 98.6854 12.593 98.8414 12.635C98.9974 12.677 99.1354 12.731 99.2554 12.797C99.3754 12.863 99.4774 12.935 99.5614 13.013C99.6454 13.085 99.7144 13.157 99.7684 13.229H99.7954V10.196H100.875V17H99.8494V16.352ZM97.2934 14.84C97.2934 15.008 97.3204 15.17 97.3744 15.326C97.4344 15.482 97.5184 15.62 97.6264 15.74C97.7404 15.86 97.8754 15.956 98.0314 16.028C98.1874 16.1 98.3644 16.136 98.5624 16.136C98.7604 16.136 98.9374 16.1 99.0934 16.028C99.2494 15.956 99.3814 15.86 99.4894 15.74C99.6034 15.62 99.6874 15.482 99.7414 15.326C99.8014 15.17 99.8314 15.008 99.8314 14.84C99.8314 14.672 99.8014 14.51 99.7414 14.354C99.6874 14.198 99.6034 14.06 99.4894 13.94C99.3814 13.82 99.2494 13.724 99.0934 13.652C98.9374 13.58 98.7604 13.544 98.5624 13.544C98.3644 13.544 98.1874 13.58 98.0314 13.652C97.8754 13.724 97.7404 13.82 97.6264 13.94C97.5184 14.06 97.4344 14.198 97.3744 14.354C97.3204 14.51 97.2934 14.672 97.2934 14.84ZM102.962 15.218C102.998 15.542 103.124 15.794 103.34 15.974C103.556 16.154 103.817 16.244 104.123 16.244C104.393 16.244 104.618 16.19 104.798 16.082C104.984 15.968 105.146 15.827 105.284 15.659L106.058 16.244C105.806 16.556 105.524 16.778 105.212 16.91C104.9 17.042 104.573 17.108 104.231 17.108C103.907 17.108 103.601 17.054 103.313 16.946C103.025 16.838 102.776 16.685 102.566 16.487C102.356 16.289 102.188 16.052 102.062 15.776C101.942 15.494 101.882 15.182 101.882 14.84C101.882 14.498 101.942 14.189 102.062 13.913C102.188 13.631 102.356 13.391 102.566 13.193C102.776 12.995 103.025 12.842 103.313 12.734C103.601 12.626 103.907 12.572 104.231 12.572C104.531 12.572 104.804 12.626 105.05 12.734C105.302 12.836 105.515 12.986 105.689 13.184C105.869 13.382 106.007 13.628 106.103 13.922C106.205 14.21 106.256 14.543 106.256 14.921V15.218H102.962ZM105.176 14.408C105.17 14.09 105.071 13.841 104.879 13.661C104.687 13.475 104.42 13.382 104.078 13.382C103.754 13.382 103.496 13.475 103.304 13.661C103.118 13.847 103.004 14.096 102.962 14.408H105.176ZM109.57 13.877C109.36 13.583 109.078 13.436 108.724 13.436C108.58 13.436 108.439 13.472 108.301 13.544C108.163 13.616 108.094 13.733 108.094 13.895C108.094 14.027 108.151 14.123 108.265 14.183C108.379 14.243 108.523 14.294 108.697 14.336C108.871 14.378 109.057 14.423 109.255 14.471C109.459 14.513 109.648 14.582 109.822 14.678C109.996 14.768 110.14 14.894 110.254 15.056C110.368 15.218 110.425 15.44 110.425 15.722C110.425 15.98 110.368 16.199 110.254 16.379C110.146 16.553 110.002 16.694 109.822 16.802C109.648 16.91 109.45 16.988 109.228 17.036C109.006 17.084 108.784 17.108 108.562 17.108C108.226 17.108 107.917 17.06 107.635 16.964C107.353 16.868 107.101 16.694 106.879 16.442L107.599 15.767C107.737 15.923 107.884 16.052 108.04 16.154C108.202 16.25 108.397 16.298 108.625 16.298C108.703 16.298 108.784 16.289 108.868 16.271C108.952 16.253 109.03 16.223 109.102 16.181C109.174 16.139 109.231 16.088 109.273 16.028C109.321 15.962 109.345 15.887 109.345 15.803C109.345 15.653 109.288 15.542 109.174 15.47C109.06 15.398 108.916 15.341 108.742 15.299C108.568 15.251 108.379 15.209 108.175 15.173C107.977 15.131 107.791 15.068 107.617 14.984C107.443 14.894 107.299 14.771 107.185 14.615C107.071 14.459 107.014 14.243 107.014 13.967C107.014 13.727 107.062 13.52 107.158 13.346C107.26 13.166 107.392 13.019 107.554 12.905C107.716 12.791 107.902 12.707 108.112 12.653C108.322 12.599 108.535 12.572 108.751 12.572C109.039 12.572 109.324 12.623 109.606 12.725C109.888 12.821 110.116 12.989 110.29 13.229L109.57 13.877ZM111.283 12.68H112.363V17H111.283V12.68ZM111.13 11.213C111.13 11.039 111.193 10.889 111.319 10.763C111.451 10.631 111.616 10.565 111.814 10.565C112.012 10.565 112.177 10.628 112.309 10.754C112.447 10.874 112.516 11.027 112.516 11.213C112.516 11.399 112.447 11.555 112.309 11.681C112.177 11.801 112.012 11.861 111.814 11.861C111.616 11.861 111.451 11.798 111.319 11.672C111.193 11.54 111.13 11.387 111.13 11.213ZM118.049 12.68V16.613C118.049 17.003 118.001 17.354 117.905 17.666C117.809 17.984 117.659 18.251 117.455 18.467C117.257 18.689 117.005 18.86 116.699 18.98C116.393 19.1 116.03 19.16 115.61 19.16C115.208 19.16 114.827 19.109 114.467 19.007C114.107 18.905 113.774 18.719 113.468 18.449L114.116 17.567C114.332 17.765 114.557 17.918 114.791 18.026C115.025 18.134 115.295 18.188 115.601 18.188C115.859 18.188 116.075 18.152 116.249 18.08C116.429 18.008 116.57 17.909 116.672 17.783C116.78 17.657 116.855 17.504 116.897 17.324C116.945 17.15 116.969 16.955 116.969 16.739V16.424H116.951C116.795 16.634 116.588 16.793 116.33 16.901C116.072 17.003 115.808 17.054 115.538 17.054C115.214 17.054 114.92 16.997 114.656 16.883C114.392 16.763 114.164 16.604 113.972 16.406C113.786 16.208 113.642 15.974 113.54 15.704C113.438 15.434 113.387 15.146 113.387 14.84C113.387 14.522 113.435 14.225 113.531 13.949C113.627 13.673 113.768 13.433 113.954 13.229C114.14 13.025 114.362 12.866 114.62 12.752C114.884 12.632 115.184 12.572 115.52 12.572C115.826 12.572 116.111 12.632 116.375 12.752C116.639 12.872 116.849 13.064 117.005 13.328H117.023V12.68H118.049ZM115.745 13.544C115.553 13.544 115.379 13.577 115.223 13.643C115.067 13.703 114.932 13.79 114.818 13.904C114.71 14.012 114.623 14.147 114.557 14.309C114.497 14.465 114.467 14.639 114.467 14.831C114.467 15.005 114.497 15.167 114.557 15.317C114.623 15.467 114.713 15.599 114.827 15.713C114.941 15.827 115.076 15.917 115.232 15.983C115.388 16.049 115.556 16.082 115.736 16.082C115.934 16.082 116.111 16.049 116.267 15.983C116.429 15.917 116.564 15.83 116.672 15.722C116.786 15.608 116.873 15.473 116.933 15.317C116.993 15.161 117.023 14.993 117.023 14.813C117.023 14.435 116.909 14.129 116.681 13.895C116.453 13.661 116.141 13.544 115.745 13.544ZM119.272 12.68H120.298V13.373H120.316C120.418 13.157 120.574 12.971 120.784 12.815C120.994 12.653 121.279 12.572 121.639 12.572C121.927 12.572 122.17 12.62 122.368 12.716C122.572 12.812 122.737 12.938 122.863 13.094C122.989 13.25 123.079 13.43 123.133 13.634C123.187 13.838 123.214 14.051 123.214 14.273V17H122.134V14.813C122.134 14.693 122.128 14.561 122.116 14.417C122.104 14.267 122.071 14.129 122.017 14.003C121.969 13.871 121.891 13.763 121.783 13.679C121.675 13.589 121.528 13.544 121.342 13.544C121.162 13.544 121.009 13.574 120.883 13.634C120.763 13.694 120.661 13.775 120.577 13.877C120.499 13.979 120.442 14.096 120.406 14.228C120.37 14.36 120.352 14.498 120.352 14.642V17H119.272V12.68Z" fill="black"/>
<path d="M62.186 173.34C62.186 172.956 62.252 172.608 62.384 172.296C62.516 171.99 62.696 171.729 62.924 171.513C63.152 171.297 63.422 171.129 63.734 171.009C64.046 170.895 64.385 170.838 64.751 170.838C65.117 170.838 65.456 170.895 65.768 171.009C66.08 171.129 66.353 171.297 66.587 171.513C66.815 171.729 66.995 171.99 67.127 172.296C67.253 172.608 67.316 172.956 67.316 173.34V177.372H66.182V173.376C66.182 173.22 66.158 173.055 66.11 172.881C66.062 172.713 65.984 172.557 65.876 172.413C65.762 172.269 65.615 172.149 65.435 172.053C65.249 171.963 65.021 171.918 64.751 171.918C64.481 171.918 64.256 171.963 64.076 172.053C63.89 172.149 63.743 172.269 63.635 172.413C63.521 172.557 63.44 172.713 63.392 172.881C63.344 173.055 63.32 173.22 63.32 173.376V177.372H62.186V173.34ZM60.8209 177.372H59.6869V171H60.8209V177.372ZM58.334 170.568L59.081 170.838L56.273 177.822L55.526 177.534L58.334 170.568ZM49.688 173.34C49.688 172.956 49.754 172.608 49.886 172.296C50.018 171.99 50.198 171.729 50.426 171.513C50.654 171.297 50.924 171.129 51.236 171.009C51.548 170.895 51.887 170.838 52.253 170.838C52.619 170.838 52.958 170.895 53.27 171.009C53.582 171.129 53.855 171.297 54.089 171.513C54.317 171.729 54.497 171.99 54.629 172.296C54.755 172.608 54.818 172.956 54.818 173.34V177.372H53.684V173.376C53.684 173.22 53.66 173.055 53.612 172.881C53.564 172.713 53.486 172.557 53.378 172.413C53.264 172.269 53.117 172.149 52.937 172.053C52.751 171.963 52.523 171.918 52.253 171.918C51.983 171.918 51.758 171.963 51.578 172.053C51.392 172.149 51.245 172.269 51.137 172.413C51.023 172.557 50.942 172.713 50.894 172.881C50.846 173.055 50.822 173.22 50.822 173.376V177.372H49.688V173.34ZM46.7388 174.33L48.8628 177.372H47.4318L45.9288 175.014L44.4438 177.372H43.0668L45.1548 174.33L42.8418 171H44.2818L45.9648 173.691L47.6388 171H49.0068L46.7388 174.33ZM36.1506 171.648H36.1686C36.3246 171.384 36.5346 171.192 36.7986 171.072C37.0626 170.952 37.3476 170.892 37.6536 170.892C37.9896 170.892 38.2896 170.949 38.5536 171.063C38.8116 171.183 39.0336 171.345 39.2196 171.549C39.4056 171.753 39.5466 171.993 39.6426 172.269C39.7386 172.545 39.7866 172.842 39.7866 173.16C39.7866 173.478 39.7356 173.775 39.6336 174.051C39.5316 174.327 39.3906 174.567 39.2106 174.771C39.0246 174.975 38.8026 175.134 38.5446 175.248C38.2866 175.368 38.0046 175.428 37.6986 175.428C37.4946 175.428 37.3146 175.407 37.1586 175.365C37.0026 175.323 36.8646 175.269 36.7446 175.203C36.6246 175.137 36.5226 175.065 36.4386 174.987C36.3546 174.915 36.2856 174.843 36.2316 174.771H36.2046V177.804H35.1246V171H36.1506V171.648ZM38.7066 173.16C38.7066 172.992 38.6796 172.83 38.6256 172.674C38.5656 172.518 38.4816 172.38 38.3736 172.26C38.2596 172.14 38.1246 172.044 37.9686 171.972C37.8126 171.9 37.6356 171.864 37.4376 171.864C37.2396 171.864 37.0626 171.9 36.9066 171.972C36.7506 172.044 36.6186 172.14 36.5106 172.26C36.3966 172.38 36.3126 172.518 36.2586 172.674C36.1986 172.83 36.1686 172.992 36.1686 173.16C36.1686 173.328 36.1986 173.49 36.2586 173.646C36.3126 173.802 36.3966 173.94 36.5106 174.06C36.6186 174.18 36.7506 174.276 36.9066 174.348C37.0626 174.42 37.2396 174.456 37.4376 174.456C37.6356 174.456 37.8126 174.42 37.9686 174.348C38.1246 174.276 38.2596 174.18 38.3736 174.06C38.4816 173.94 38.5656 173.802 38.6256 173.646C38.6796 173.49 38.7066 173.328 38.7066 173.16ZM33.0377 172.782C33.0017 172.458 32.8757 172.206 32.6597 172.026C32.4437 171.846 32.1827 171.756 31.8767 171.756C31.6067 171.756 31.3817 171.81 31.2017 171.918C31.0157 172.032 30.8537 172.173 30.7157 172.341L29.9417 171.756C30.1937 171.444 30.4757 171.222 30.7877 171.09C31.0997 170.958 31.4267 170.892 31.7687 170.892C32.0927 170.892 32.3987 170.946 32.6867 171.054C32.9747 171.162 33.2237 171.315 33.4337 171.513C33.6437 171.711 33.8117 171.948 33.9377 172.224C34.0577 172.506 34.1177 172.818 34.1177 173.16C34.1177 173.502 34.0577 173.811 33.9377 174.087C33.8117 174.369 33.6437 174.609 33.4337 174.807C33.2237 175.005 32.9747 175.158 32.6867 175.266C32.3987 175.374 32.0927 175.428 31.7687 175.428C31.4687 175.428 31.1957 175.374 30.9497 175.266C30.6977 175.164 30.4847 175.014 30.3107 174.816C30.1307 174.618 29.9927 174.372 29.8967 174.078C29.7947 173.79 29.7437 173.457 29.7437 173.079V172.782H33.0377ZM30.8237 173.592C30.8297 173.91 30.9287 174.159 31.1207 174.339C31.3127 174.525 31.5797 174.618 31.9217 174.618C32.2457 174.618 32.5037 174.525 32.6957 174.339C32.8817 174.153 32.9957 173.904 33.0377 173.592H30.8237ZM26.4297 174.123C26.6397 174.417 26.9217 174.564 27.2757 174.564C27.4197 174.564 27.5607 174.528 27.6987 174.456C27.8367 174.384 27.9057 174.267 27.9057 174.105C27.9057 173.973 27.8487 173.877 27.7347 173.817C27.6207 173.757 27.4767 173.706 27.3027 173.664C27.1287 173.622 26.9427 173.577 26.7447 173.529C26.5407 173.487 26.3517 173.418 26.1777 173.322C26.0037 173.232 25.8597 173.106 25.7457 172.944C25.6317 172.782 25.5747 172.56 25.5747 172.278C25.5747 172.02 25.6317 171.801 25.7457 171.621C25.8537 171.447 25.9977 171.306 26.1777 171.198C26.3517 171.09 26.5497 171.012 26.7717 170.964C26.9937 170.916 27.2157 170.892 27.4377 170.892C27.7737 170.892 28.0827 170.94 28.3647 171.036C28.6467 171.132 28.8987 171.306 29.1207 171.558L28.4007 172.233C28.2627 172.077 28.1157 171.948 27.9597 171.846C27.7977 171.75 27.6027 171.702 27.3747 171.702C27.2967 171.702 27.2157 171.711 27.1317 171.729C27.0477 171.747 26.9697 171.777 26.8977 171.819C26.8257 171.861 26.7687 171.912 26.7267 171.972C26.6787 172.038 26.6547 172.113 26.6547 172.197C26.6547 172.347 26.7117 172.458 26.8257 172.53C26.9397 172.602 27.0837 172.659 27.2577 172.701C27.4317 172.749 27.6207 172.791 27.8247 172.827C28.0227 172.869 28.2087 172.932 28.3827 173.016C28.5567 173.106 28.7007 173.229 28.8147 173.385C28.9287 173.541 28.9857 173.757 28.9857 174.033C28.9857 174.273 28.9377 174.48 28.8417 174.654C28.7397 174.834 28.6077 174.981 28.4457 175.095C28.2837 175.209 28.0977 175.293 27.8877 175.347C27.6777 175.401 27.4647 175.428 27.2487 175.428C26.9607 175.428 26.6757 175.377 26.3937 175.275C26.1117 175.179 25.8837 175.011 25.7097 174.771L26.4297 174.123ZM24.7167 175.32H23.6367V171H24.7167V175.32ZM24.8697 176.787C24.8697 176.961 24.8067 177.111 24.6807 177.237C24.5487 177.369 24.3837 177.435 24.1857 177.435C23.9877 177.435 23.8227 177.372 23.6907 177.246C23.5527 177.126 23.4837 176.973 23.4837 176.787C23.4837 176.601 23.5527 176.445 23.6907 176.319C23.8227 176.199 23.9877 176.139 24.1857 176.139C24.3837 176.139 24.5487 176.202 24.6807 176.328C24.8067 176.46 24.8697 176.613 24.8697 176.787ZM17.9508 175.32V171.387C17.9508 170.997 17.9988 170.646 18.0948 170.334C18.1908 170.016 18.3408 169.749 18.5448 169.533C18.7428 169.311 18.9948 169.14 19.3008 169.02C19.6068 168.9 19.9698 168.84 20.3898 168.84C20.7918 168.84 21.1728 168.891 21.5328 168.993C21.8928 169.095 22.2258 169.281 22.5318 169.551L21.8838 170.433C21.6678 170.235 21.4428 170.082 21.2088 169.974C20.9748 169.866 20.7048 169.812 20.3988 169.812C20.1408 169.812 19.9248 169.848 19.7508 169.92C19.5708 169.992 19.4298 170.091 19.3278 170.217C19.2198 170.343 19.1448 170.496 19.1028 170.676C19.0548 170.85 19.0308 171.045 19.0308 171.261V171.576H19.0488C19.2048 171.366 19.4118 171.207 19.6698 171.099C19.9278 170.997 20.1918 170.946 20.4618 170.946C20.7858 170.946 21.0798 171.003 21.3438 171.117C21.6078 171.237 21.8358 171.396 22.0278 171.594C22.2138 171.792 22.3578 172.026 22.4598 172.296C22.5618 172.566 22.6128 172.854 22.6128 173.16C22.6128 173.478 22.5648 173.775 22.4688 174.051C22.3728 174.327 22.2318 174.567 22.0458 174.771C21.8598 174.975 21.6378 175.134 21.3798 175.248C21.1158 175.368 20.8158 175.428 20.4798 175.428C20.1738 175.428 19.8888 175.368 19.6248 175.248C19.3608 175.128 19.1508 174.936 18.9948 174.672H18.9768V175.32H17.9508ZM20.2548 174.456C20.4468 174.456 20.6208 174.423 20.7768 174.357C20.9328 174.297 21.0678 174.21 21.1818 174.096C21.2898 173.988 21.3768 173.853 21.4428 173.691C21.5028 173.535 21.5328 173.361 21.5328 173.169C21.5328 172.995 21.5028 172.833 21.4428 172.683C21.3768 172.533 21.2868 172.401 21.1728 172.287C21.0588 172.173 20.9238 172.083 20.7678 172.017C20.6118 171.951 20.4438 171.918 20.2638 171.918C20.0658 171.918 19.8888 171.951 19.7328 172.017C19.5708 172.083 19.4358 172.17 19.3278 172.278C19.2138 172.392 19.1268 172.527 19.0668 172.683C19.0068 172.839 18.9768 173.007 18.9768 173.187C18.9768 173.565 19.0908 173.871 19.3188 174.105C19.5468 174.339 19.8588 174.456 20.2548 174.456ZM16.7278 175.32H15.7018V174.627H15.6838C15.5818 174.843 15.4258 175.029 15.2158 175.185C15.0058 175.347 14.7208 175.428 14.3608 175.428C14.0728 175.428 13.8298 175.38 13.6318 175.284C13.4278 175.188 13.2628 175.062 13.1368 174.906C13.0108 174.75 12.9208 174.57 12.8668 174.366C12.8128 174.162 12.7858 173.949 12.7858 173.727V171H13.8658V173.187C13.8658 173.307 13.8718 173.439 13.8838 173.583C13.8958 173.733 13.9288 173.871 13.9828 173.997C14.0308 174.129 14.1088 174.237 14.2168 174.321C14.3248 174.411 14.4718 174.456 14.6578 174.456C14.8378 174.456 14.9908 174.426 15.1168 174.366C15.2368 174.306 15.3388 174.225 15.4228 174.123C15.5008 174.021 15.5578 173.904 15.5938 173.772C15.6298 173.64 15.6478 173.502 15.6478 173.358V171H16.7278V175.32Z" fill="black"/>
<path d="M28 142L107 47" stroke="black" stroke-linecap="round"/>
<path d="M18.0001 18.6105C18.1056 18.6105 18.2563 18.5402 18.3617 18.4749C21.2094 16.6819 22.9873 14.5625 22.9873 12.423C22.9873 10.6451 21.7669 9.38953 20.1396 9.38953C19.2055 9.38953 18.4521 9.94198 18.0001 10.7907C17.5481 9.94701 16.7897 9.38953 15.8606 9.38953C14.2334 9.38953 13.0129 10.6451 13.0129 12.423C13.0129 14.5625 14.7758 16.707 17.6335 18.4749C17.744 18.5402 17.8946 18.6105 18.0001 18.6105Z" fill="#D6FB30"/>
<path d="M118 169.39C117.894 169.39 117.744 169.46 117.638 169.525C114.791 171.318 113.013 173.437 113.013 175.577C113.013 177.355 114.233 178.61 115.86 178.61C116.795 178.61 117.548 178.058 118 177.209C118.452 178.053 119.21 178.61 120.139 178.61C121.767 178.61 122.987 177.355 122.987 175.577C122.987 173.437 121.224 171.293 118.367 169.525C118.256 169.46 118.105 169.39 118 169.39Z" fill="#D6FB30"/>
<path d="M63.3692 48.2871C64.9127 47.3171 67.242 46.6805 69.3613 46.9629C70.8039 47.155 72.1471 47.7142 73.2334 48.8789C73.6183 49.1653 73.9529 49.5318 74.208 49.9736C75.2093 51.7078 74.615 53.9256 72.8809 54.9268C71.1467 55.9277 68.9299 55.3337 67.9287 53.5996C67.7337 53.2618 67.5997 52.9062 67.5225 52.5439C67.5215 52.5394 67.5197 52.5348 67.5186 52.5303C67.4827 51.9134 67.7518 51.3972 68.1299 51.0185C68.8609 50.2861 70.1008 49.9662 71.6035 51.4687L71.6406 51.4307C70.7541 49.3034 69.1254 48.8595 67.7539 49.2314C67.4643 49.3099 67.1818 49.4249 66.9199 49.581C66.0068 50.1259 65.3339 51.1576 65.4307 52.7588C65.4311 52.7652 65.4332 52.7719 65.4336 52.7783C65.4349 52.7945 65.4349 52.8109 65.4365 52.8271C65.6411 54.6896 67.5872 57.1562 69.082 58.5195C70.9206 59.9956 73.7236 61.3212 77.7569 62.375L77.7598 62.373L77.8242 62.3906C82.4054 63.6014 85.8152 65.9454 88.0684 68.9824L83.4444 74.5439C83.2877 74.1305 83.1054 73.7205 82.8906 73.3184C81.5117 70.7359 78.9626 68.4551 75.1094 66.6309C67.5393 63.0473 63.3737 59.5796 61.5137 56.7334C61.053 57.2565 60.5834 57.7636 60.1055 58.2568L75.2188 84.4346L73.7256 86.2295L58.4863 59.834C57.7461 60.5143 56.9844 61.1582 56.2002 61.7627L71.7197 88.6426L70.2266 90.4375L54.4121 63.0449C53.6013 63.5838 52.7643 64.085 51.9043 64.5391L68.2383 92.8291L66.7461 94.624L49.9219 65.4844C49.2348 65.7798 48.5323 66.0479 47.8135 66.2881L47.0899 66.5195L64.7207 97.0586L63.2285 98.8535L44.8906 67.0908C44.1281 67.2544 43.349 67.3876 42.5508 67.4902C44.1314 70.4968 45.093 75.8751 44.4004 84.3603C44.0533 88.6098 44.7547 91.9577 46.3018 94.4434C47.8489 96.9288 50.2339 98.4869 52.9619 99.2041C56.0663 100.02 59.6215 99.8252 63.2188 98.8662L55.9004 107.665C52.9295 107.284 50.2013 106.407 47.8389 105.117C40.732 101.238 36.8417 93.7999 39.3887 84.5273C40.4928 80.5075 40.7488 77.4152 40.3897 75.085C40.1048 73.3134 38.7735 70.2817 37.3526 69.041C37.3339 69.0283 37.3157 69.0143 37.2969 69.0019C35.9587 68.1177 34.7291 68.1849 33.8008 68.7031C33.5345 68.8519 33.2931 69.0385 33.0801 69.25C32.0719 70.2522 31.6393 71.887 33.0381 73.7187L33.0928 73.7041C32.5428 71.651 33.4397 70.7366 34.4395 70.4697C35.1213 70.2877 35.913 70.3905 36.5215 71.124C36.629 71.26 36.727 71.4077 36.8164 71.5625C36.8266 71.5805 36.8377 71.5974 36.8477 71.6162C36.8548 71.629 36.8594 71.6432 36.8662 71.6562C36.8835 71.6893 36.9033 71.7222 36.9199 71.7568C37.0115 71.9476 37.0977 72.163 37.1709 72.4023C37.1749 72.4155 37.1778 72.43 37.1817 72.4434C37.5927 73.9879 36.9397 75.6773 35.4893 76.5146C33.7551 77.5157 31.5383 76.9215 30.5371 75.1875C30.3562 74.874 30.2298 74.545 30.1504 74.21C30.1363 74.2349 30.1233 74.2601 30.1094 74.2852C29.4651 72.6047 29.6352 71.0186 30.2412 69.5488C31.0057 67.6955 32.5624 66.0874 34.082 65.1914C34.1834 65.1316 34.2842 65.0746 34.3848 65.0215C35.7716 64.2885 37.1474 63.9822 38.3731 64.1435C38.4722 64.1566 38.5703 64.1735 38.668 64.1924C48.4411 64.8419 55.2974 60.4446 60.2656 52.7715C60.3002 52.2546 60.4214 51.7672 60.6143 51.3018C61.0875 50.1597 62.0408 49.1217 63.3692 48.2871ZM63.2344 98.8623C63.2292 98.8637 63.2239 98.8648 63.2188 98.8662L63.2285 98.8535L63.2344 98.8623Z" fill="black"/>
<path d="M70.6992 140.378C69.1556 141.348 66.8264 141.985 64.707 141.702C63.2645 141.51 61.9212 140.951 60.8349 139.786C60.45 139.5 60.1155 139.133 59.8603 138.691C58.8591 136.957 59.4534 134.739 61.1875 133.738C62.9216 132.737 65.1384 133.331 66.1396 135.065C66.3347 135.403 66.4686 135.759 66.5459 136.121C66.5469 136.126 66.5487 136.13 66.5498 136.135C66.5857 136.752 66.3165 137.268 65.9385 137.646C65.2075 138.379 63.9676 138.699 62.4648 137.196L62.4277 137.234C63.3142 139.362 64.943 139.806 66.3144 139.434C66.604 139.355 66.8866 139.24 67.1484 139.084C68.0616 138.539 68.7344 137.507 68.6377 135.906C68.6372 135.9 68.6351 135.893 68.6348 135.887C68.6335 135.871 68.6334 135.854 68.6318 135.838C68.4273 133.975 66.4811 131.509 64.9863 130.146C63.1478 128.669 60.3448 127.344 56.3115 126.29L56.3086 126.292L56.2441 126.274C51.663 125.064 48.2532 122.72 46 119.683L50.624 114.121C50.7807 114.534 50.963 114.945 51.1777 115.347C52.5567 117.929 55.1058 120.21 58.959 122.034C66.5291 125.618 70.6947 129.085 72.5547 131.932C73.0153 131.409 73.485 130.901 73.9629 130.408L58.8496 104.23L60.3428 102.436L75.582 128.831C76.3223 128.151 77.084 127.507 77.8682 126.902L62.3486 100.022L63.8418 98.2275L79.6562 125.62C80.4671 125.081 81.304 124.58 82.164 124.126L65.8301 95.8359L67.3223 94.041L84.1465 123.181C84.8336 122.885 85.5361 122.617 86.2549 122.377L86.9785 122.146L69.3476 91.6064L70.8398 89.8115L89.1777 121.574C89.9402 121.411 90.7193 121.277 91.5176 121.175C89.9369 118.168 88.9753 112.79 89.668 104.305C90.015 100.055 89.3137 96.7073 87.7666 94.2217C86.2194 91.7362 83.8344 90.1782 81.1064 89.4609C78.0021 88.6449 74.4469 88.8399 70.8496 89.7988L78.168 81C81.1388 81.3809 83.867 82.2584 86.2295 83.5479C93.3363 87.4269 97.2267 94.8652 94.6797 104.138C93.5755 108.158 93.3195 111.25 93.6787 113.58C93.9636 115.352 95.2948 118.383 96.7158 119.624C96.7345 119.637 96.7527 119.651 96.7715 119.663C98.1096 120.547 99.3393 120.48 100.268 119.962C100.534 119.813 100.775 119.626 100.988 119.415C101.996 118.413 102.429 116.778 101.03 114.946L100.976 114.961C101.526 117.014 100.629 117.928 99.6289 118.195C98.9471 118.377 98.1553 118.275 97.5469 117.541C97.4394 117.405 97.3413 117.257 97.2519 117.103C97.2418 117.085 97.2306 117.068 97.2207 117.049C97.2136 117.036 97.2089 117.022 97.2021 117.009C97.1848 116.976 97.165 116.943 97.1484 116.908C97.0568 116.717 96.9707 116.502 96.8974 116.263C96.8935 116.25 96.8906 116.235 96.8867 116.222C96.4757 114.677 97.1287 112.988 98.5791 112.15C100.313 111.149 102.53 111.743 103.531 113.478C103.712 113.791 103.839 114.12 103.918 114.455C103.932 114.43 103.945 114.405 103.959 114.38C104.603 116.06 104.433 117.646 103.827 119.116C103.063 120.969 101.506 122.578 99.9863 123.474C99.885 123.533 99.7842 123.59 99.6836 123.644C98.2967 124.377 96.921 124.683 95.6953 124.521C95.5961 124.508 95.498 124.492 95.4004 124.473C85.6272 123.823 78.7709 128.22 73.8027 135.894C73.7682 136.41 73.647 136.898 73.4541 137.363C72.9809 138.505 72.0275 139.543 70.6992 140.378ZM70.834 89.8027C70.8392 89.8014 70.8444 89.8002 70.8496 89.7988L70.8398 89.8115L70.834 89.8027Z" fill="black"/>
</svg>
