<svg width="136" height="189" viewBox="0 0 136 189" fill="none" xmlns="http://www.w3.org/2000/svg">
<rect width="136" height="189" rx="8.5" fill="#646464"/>
<path d="M39.711 10.628H42.222C42.642 10.628 43.047 10.694 43.437 10.826C43.827 10.952 44.172 11.147 44.472 11.411C44.772 11.675 45.012 12.008 45.192 12.41C45.372 12.806 45.462 13.274 45.462 13.814C45.462 14.36 45.357 14.834 45.147 15.236C44.943 15.632 44.676 15.962 44.346 16.226C44.022 16.484 43.659 16.679 43.257 16.811C42.861 16.937 42.471 17 42.087 17H39.711V10.628ZM41.691 15.974C42.045 15.974 42.378 15.935 42.69 15.857C43.008 15.773 43.284 15.647 43.518 15.479C43.752 15.305 43.935 15.083 44.067 14.813C44.205 14.537 44.274 14.204 44.274 13.814C44.274 13.43 44.214 13.1 44.094 12.824C43.974 12.548 43.806 12.326 43.59 12.158C43.38 11.984 43.128 11.858 42.834 11.78C42.546 11.696 42.228 11.654 41.88 11.654H40.845V15.974H41.691ZM47.3051 15.218C47.3411 15.542 47.4671 15.794 47.6831 15.974C47.8991 16.154 48.1601 16.244 48.4661 16.244C48.7361 16.244 48.9611 16.19 49.1411 16.082C49.3271 15.968 49.4891 15.827 49.6271 15.659L50.4011 16.244C50.1491 16.556 49.8671 16.778 49.5551 16.91C49.2431 17.042 48.9161 17.108 48.5741 17.108C48.2501 17.108 47.9441 17.054 47.6561 16.946C47.3681 16.838 47.1191 16.685 46.9091 16.487C46.6991 16.289 46.5311 16.052 46.4051 15.776C46.2851 15.494 46.2251 15.182 46.2251 14.84C46.2251 14.498 46.2851 14.189 46.4051 13.913C46.5311 13.631 46.6991 13.391 46.9091 13.193C47.1191 12.995 47.3681 12.842 47.6561 12.734C47.9441 12.626 48.2501 12.572 48.5741 12.572C48.8741 12.572 49.1471 12.626 49.3931 12.734C49.6451 12.836 49.8581 12.986 50.0321 13.184C50.2121 13.382 50.3501 13.628 50.4461 13.922C50.5481 14.21 50.5991 14.543 50.5991 14.921V15.218H47.3051ZM49.5191 14.408C49.5131 14.09 49.4141 13.841 49.2221 13.661C49.0301 13.475 48.7631 13.382 48.4211 13.382C48.0971 13.382 47.8391 13.475 47.6471 13.661C47.4611 13.847 47.3471 14.096 47.3051 14.408H49.5191ZM51.0241 12.68H52.2031L53.3551 15.704H53.3731L54.5341 12.68H55.6411L53.9401 17H52.7881L51.0241 12.68ZM56.0331 13.841C56.0331 13.331 56.1171 12.869 56.2851 12.455C56.4531 12.035 56.6841 11.678 56.9781 11.384C57.2781 11.09 57.6321 10.865 58.0401 10.709C58.4541 10.547 58.9071 10.466 59.3991 10.466C59.8971 10.46 60.3531 10.535 60.7671 10.691C61.1811 10.841 61.5381 11.063 61.8381 11.357C62.1381 11.651 62.3721 12.005 62.5401 12.419C62.7081 12.833 62.7921 13.295 62.7921 13.805C62.7921 14.303 62.7081 14.756 62.5401 15.164C62.3721 15.572 62.1381 15.923 61.8381 16.217C61.5381 16.511 61.1811 16.742 60.7671 16.91C60.3531 17.072 59.8971 17.156 59.3991 17.162C58.9071 17.162 58.4541 17.084 58.0401 16.928C57.6321 16.766 57.2781 16.541 56.9781 16.253C56.6841 15.959 56.4531 15.608 56.2851 15.2C56.1171 14.792 56.0331 14.339 56.0331 13.841ZM57.2211 13.769C57.2211 14.111 57.2721 14.426 57.3741 14.714C57.4821 15.002 57.6321 15.251 57.8241 15.461C58.0161 15.671 58.2441 15.836 58.5081 15.956C58.7781 16.076 59.0781 16.136 59.4081 16.136C59.7381 16.136 60.0381 16.076 60.3081 15.956C60.5781 15.836 60.8091 15.671 61.0011 15.461C61.1931 15.251 61.3401 15.002 61.4421 14.714C61.5501 14.426 61.6041 14.111 61.6041 13.769C61.6041 13.451 61.5501 13.154 61.4421 12.878C61.3401 12.602 61.1931 12.362 61.0011 12.158C60.8091 11.948 60.5781 11.786 60.3081 11.672C60.0381 11.552 59.7381 11.492 59.4081 11.492C59.0781 11.492 58.7781 11.552 58.5081 11.672C58.2441 11.786 58.0161 11.948 57.8241 12.158C57.6321 12.362 57.4821 12.602 57.3741 12.878C57.2721 13.154 57.2211 13.451 57.2211 13.769ZM63.7731 12.68H64.7991V13.328H64.8171C64.9731 13.064 65.1831 12.872 65.4471 12.752C65.7111 12.632 65.9961 12.572 66.3021 12.572C66.6321 12.572 66.9291 12.632 67.1931 12.752C67.4571 12.866 67.6821 13.025 67.8681 13.229C68.0541 13.433 68.1951 13.673 68.2911 13.949C68.3871 14.225 68.4351 14.522 68.4351 14.84C68.4351 15.158 68.3841 15.455 68.2821 15.731C68.1801 16.007 68.0361 16.247 67.8501 16.451C67.6701 16.655 67.4511 16.817 67.1931 16.937C66.9351 17.051 66.6531 17.108 66.3471 17.108C66.1431 17.108 65.9631 17.087 65.8071 17.045C65.6511 17.003 65.5131 16.949 65.3931 16.883C65.2731 16.817 65.1711 16.748 65.0871 16.676C65.0031 16.598 64.9341 16.523 64.8801 16.451H64.8531V19.052H63.7731V12.68ZM67.3551 14.84C67.3551 14.672 67.3251 14.51 67.2651 14.354C67.2111 14.198 67.1271 14.06 67.0131 13.94C66.9051 13.82 66.7731 13.724 66.6171 13.652C66.4611 13.58 66.2841 13.544 66.0861 13.544C65.8881 13.544 65.7111 13.58 65.5551 13.652C65.3991 13.724 65.2641 13.82 65.1501 13.94C65.0421 14.06 64.9581 14.198 64.8981 14.354C64.8441 14.51 64.8171 14.672 64.8171 14.84C64.8171 15.008 64.8441 15.17 64.8981 15.326C64.9581 15.482 65.0421 15.62 65.1501 15.74C65.2641 15.86 65.3991 15.956 65.5551 16.028C65.7111 16.1 65.8881 16.136 66.0861 16.136C66.2841 16.136 66.4611 16.1 66.6171 16.028C66.7731 15.956 66.9051 15.86 67.0131 15.74C67.1271 15.62 67.2111 15.482 67.2651 15.326C67.3251 15.17 67.3551 15.008 67.3551 14.84ZM71.7461 13.877C71.5361 13.583 71.2541 13.436 70.9001 13.436C70.7561 13.436 70.6151 13.472 70.4771 13.544C70.3391 13.616 70.2701 13.733 70.2701 13.895C70.2701 14.027 70.3271 14.123 70.4411 14.183C70.5551 14.243 70.6991 14.294 70.8731 14.336C71.0471 14.378 71.2331 14.423 71.4311 14.471C71.6351 14.513 71.8241 14.582 71.9981 14.678C72.1721 14.768 72.3161 14.894 72.4301 15.056C72.5441 15.218 72.6011 15.44 72.6011 15.722C72.6011 15.98 72.5441 16.199 72.4301 16.379C72.3221 16.553 72.1781 16.694 71.9981 16.802C71.8241 16.91 71.6261 16.988 71.4041 17.036C71.1821 17.084 70.9601 17.108 70.7381 17.108C70.4021 17.108 70.0931 17.06 69.8111 16.964C69.5291 16.868 69.2771 16.694 69.0551 16.442L69.7751 15.767C69.9131 15.923 70.0601 16.052 70.2161 16.154C70.3781 16.25 70.5731 16.298 70.8011 16.298C70.8791 16.298 70.9601 16.289 71.0441 16.271C71.1281 16.253 71.2061 16.223 71.2781 16.181C71.3501 16.139 71.4071 16.088 71.4491 16.028C71.4971 15.962 71.5211 15.887 71.5211 15.803C71.5211 15.653 71.4641 15.542 71.3501 15.47C71.2361 15.398 71.0921 15.341 70.9181 15.299C70.7441 15.251 70.5551 15.209 70.3511 15.173C70.1531 15.131 69.9671 15.068 69.7931 14.984C69.6191 14.894 69.4751 14.771 69.3611 14.615C69.2471 14.459 69.1901 14.243 69.1901 13.967C69.1901 13.727 69.2381 13.52 69.3341 13.346C69.4361 13.166 69.5681 13.019 69.7301 12.905C69.8921 12.791 70.0781 12.707 70.2881 12.653C70.4981 12.599 70.7111 12.572 70.9271 12.572C71.2151 12.572 71.5001 12.623 71.7821 12.725C72.0641 12.821 72.2921 12.989 72.4661 13.229L71.7461 13.877ZM73.4951 17.432L72.7481 17.162L75.5561 10.178L76.3031 10.466L73.4951 17.432ZM77.0111 10.628H78.1451V17H77.0111V10.628ZM79.444 12.68H80.47V13.373H80.488C80.59 13.157 80.746 12.971 80.956 12.815C81.166 12.653 81.451 12.572 81.811 12.572C82.099 12.572 82.342 12.62 82.54 12.716C82.744 12.812 82.909 12.938 83.035 13.094C83.161 13.25 83.251 13.43 83.305 13.634C83.359 13.838 83.386 14.051 83.386 14.273V17H82.306V14.813C82.306 14.693 82.3 14.561 82.288 14.417C82.276 14.267 82.243 14.129 82.189 14.003C82.141 13.871 82.063 13.763 81.955 13.679C81.847 13.589 81.7 13.544 81.514 13.544C81.334 13.544 81.181 13.574 81.055 13.634C80.935 13.694 80.833 13.775 80.749 13.877C80.671 13.979 80.614 14.096 80.578 14.228C80.542 14.36 80.524 14.498 80.524 14.642V17H79.444V12.68ZM84.108 13.598V12.68H84.999V11.429H86.079V12.68H87.267V13.598H86.079V15.488C86.079 15.704 86.118 15.875 86.196 16.001C86.28 16.127 86.442 16.19 86.682 16.19C86.778 16.19 86.883 16.181 86.997 16.163C87.111 16.139 87.201 16.103 87.267 16.055V16.964C87.153 17.018 87.012 17.054 86.844 17.072C86.682 17.096 86.538 17.108 86.412 17.108C86.124 17.108 85.887 17.075 85.701 17.009C85.521 16.949 85.377 16.856 85.269 16.73C85.167 16.598 85.095 16.436 85.053 16.244C85.017 16.052 84.999 15.83 84.999 15.578V13.598H84.108ZM88.974 15.218C89.01 15.542 89.136 15.794 89.352 15.974C89.568 16.154 89.829 16.244 90.135 16.244C90.405 16.244 90.63 16.19 90.81 16.082C90.996 15.968 91.158 15.827 91.296 15.659L92.07 16.244C91.818 16.556 91.536 16.778 91.224 16.91C90.912 17.042 90.585 17.108 90.243 17.108C89.919 17.108 89.613 17.054 89.325 16.946C89.037 16.838 88.788 16.685 88.578 16.487C88.368 16.289 88.2 16.052 88.074 15.776C87.954 15.494 87.894 15.182 87.894 14.84C87.894 14.498 87.954 14.189 88.074 13.913C88.2 13.631 88.368 13.391 88.578 13.193C88.788 12.995 89.037 12.842 89.325 12.734C89.613 12.626 89.919 12.572 90.243 12.572C90.543 12.572 90.816 12.626 91.062 12.734C91.314 12.836 91.527 12.986 91.701 13.184C91.881 13.382 92.019 13.628 92.115 13.922C92.217 14.21 92.268 14.543 92.268 14.921V15.218H88.974ZM91.188 14.408C91.182 14.09 91.083 13.841 90.891 13.661C90.699 13.475 90.432 13.382 90.09 13.382C89.766 13.382 89.508 13.475 89.316 13.661C89.13 13.847 89.016 14.096 88.974 14.408H91.188ZM97.724 12.68V16.613C97.724 17.003 97.676 17.354 97.58 17.666C97.484 17.984 97.334 18.251 97.13 18.467C96.932 18.689 96.68 18.86 96.374 18.98C96.068 19.1 95.705 19.16 95.285 19.16C94.883 19.16 94.502 19.109 94.142 19.007C93.782 18.905 93.449 18.719 93.143 18.449L93.791 17.567C94.007 17.765 94.232 17.918 94.466 18.026C94.7 18.134 94.97 18.188 95.276 18.188C95.534 18.188 95.75 18.152 95.924 18.08C96.104 18.008 96.245 17.909 96.347 17.783C96.455 17.657 96.53 17.504 96.572 17.324C96.62 17.15 96.644 16.955 96.644 16.739V16.424H96.626C96.47 16.634 96.263 16.793 96.005 16.901C95.747 17.003 95.483 17.054 95.213 17.054C94.889 17.054 94.595 16.997 94.331 16.883C94.067 16.763 93.839 16.604 93.647 16.406C93.461 16.208 93.317 15.974 93.215 15.704C93.113 15.434 93.062 15.146 93.062 14.84C93.062 14.522 93.11 14.225 93.206 13.949C93.302 13.673 93.443 13.433 93.629 13.229C93.815 13.025 94.037 12.866 94.295 12.752C94.559 12.632 94.859 12.572 95.195 12.572C95.501 12.572 95.786 12.632 96.05 12.752C96.314 12.872 96.524 13.064 96.68 13.328H96.698V12.68H97.724ZM95.42 13.544C95.228 13.544 95.054 13.577 94.898 13.643C94.742 13.703 94.607 13.79 94.493 13.904C94.385 14.012 94.298 14.147 94.232 14.309C94.172 14.465 94.142 14.639 94.142 14.831C94.142 15.005 94.172 15.167 94.232 15.317C94.298 15.467 94.388 15.599 94.502 15.713C94.616 15.827 94.751 15.917 94.907 15.983C95.063 16.049 95.231 16.082 95.411 16.082C95.609 16.082 95.786 16.049 95.942 15.983C96.104 15.917 96.239 15.83 96.347 15.722C96.461 15.608 96.548 15.473 96.608 15.317C96.668 15.161 96.698 14.993 96.698 14.813C96.698 14.435 96.584 14.129 96.356 13.895C96.128 13.661 95.816 13.544 95.42 13.544ZM98.947 12.68H100.027V13.364H100.045C100.165 13.112 100.336 12.917 100.558 12.779C100.78 12.641 101.035 12.572 101.323 12.572C101.389 12.572 101.452 12.578 101.512 12.59C101.578 12.602 101.644 12.617 101.71 12.635V13.679C101.62 13.655 101.53 13.637 101.44 13.625C101.356 13.607 101.272 13.598 101.188 13.598C100.936 13.598 100.732 13.646 100.576 13.742C100.426 13.832 100.309 13.937 100.225 14.057C100.147 14.177 100.093 14.297 100.063 14.417C100.039 14.537 100.027 14.627 100.027 14.687V17H98.947V12.68ZM105.145 16.406H105.118C104.962 16.652 104.764 16.832 104.524 16.946C104.284 17.054 104.02 17.108 103.732 17.108C103.534 17.108 103.339 17.081 103.147 17.027C102.961 16.973 102.793 16.892 102.643 16.784C102.499 16.676 102.382 16.541 102.292 16.379C102.202 16.217 102.157 16.028 102.157 15.812C102.157 15.578 102.199 15.38 102.283 15.218C102.367 15.05 102.478 14.912 102.616 14.804C102.76 14.69 102.925 14.6 103.111 14.534C103.297 14.468 103.489 14.42 103.687 14.39C103.891 14.354 104.095 14.333 104.299 14.327C104.503 14.315 104.695 14.309 104.875 14.309H105.145V14.192C105.145 13.922 105.052 13.721 104.866 13.589C104.68 13.451 104.443 13.382 104.155 13.382C103.927 13.382 103.714 13.424 103.516 13.508C103.318 13.586 103.147 13.694 103.003 13.832L102.436 13.265C102.676 13.019 102.955 12.842 103.273 12.734C103.597 12.626 103.93 12.572 104.272 12.572C104.578 12.572 104.836 12.608 105.046 12.68C105.256 12.746 105.43 12.833 105.568 12.941C105.706 13.049 105.811 13.175 105.883 13.319C105.961 13.457 106.015 13.598 106.045 13.742C106.081 13.886 106.102 14.027 106.108 14.165C106.114 14.297 106.117 14.414 106.117 14.516V17H105.145V16.406ZM105.082 15.065H104.857C104.707 15.065 104.539 15.071 104.353 15.083C104.167 15.095 103.99 15.125 103.822 15.173C103.66 15.215 103.522 15.281 103.408 15.371C103.294 15.455 103.237 15.575 103.237 15.731C103.237 15.833 103.258 15.92 103.3 15.992C103.348 16.058 103.408 16.115 103.48 16.163C103.552 16.211 103.633 16.247 103.723 16.271C103.813 16.289 103.903 16.298 103.993 16.298C104.365 16.298 104.638 16.211 104.812 16.037C104.992 15.857 105.082 15.614 105.082 15.308V15.065ZM106.775 13.598V12.68H107.666V11.429H108.746V12.68H109.934V13.598H108.746V15.488C108.746 15.704 108.785 15.875 108.863 16.001C108.947 16.127 109.109 16.19 109.349 16.19C109.445 16.19 109.55 16.181 109.664 16.163C109.778 16.139 109.868 16.103 109.934 16.055V16.964C109.82 17.018 109.679 17.054 109.511 17.072C109.349 17.096 109.205 17.108 109.079 17.108C108.791 17.108 108.554 17.075 108.368 17.009C108.188 16.949 108.044 16.856 107.936 16.73C107.834 16.598 107.762 16.436 107.72 16.244C107.684 16.052 107.666 15.83 107.666 15.578V13.598H106.775ZM110.804 12.68H111.884V17H110.804V12.68ZM110.651 11.213C110.651 11.039 110.714 10.889 110.84 10.763C110.972 10.631 111.137 10.565 111.335 10.565C111.533 10.565 111.698 10.628 111.83 10.754C111.968 10.874 112.037 11.027 112.037 11.213C112.037 11.399 111.968 11.555 111.83 11.681C111.698 11.801 111.533 11.861 111.335 11.861C111.137 11.861 110.972 11.798 110.84 11.672C110.714 11.54 110.651 11.387 110.651 11.213ZM112.908 14.84C112.908 14.498 112.968 14.189 113.088 13.913C113.214 13.631 113.382 13.391 113.592 13.193C113.802 12.995 114.051 12.842 114.339 12.734C114.627 12.626 114.933 12.572 115.257 12.572C115.581 12.572 115.887 12.626 116.175 12.734C116.463 12.842 116.712 12.995 116.922 13.193C117.132 13.391 117.297 13.631 117.417 13.913C117.543 14.189 117.606 14.498 117.606 14.84C117.606 15.182 117.543 15.494 117.417 15.776C117.297 16.052 117.132 16.289 116.922 16.487C116.712 16.685 116.463 16.838 116.175 16.946C115.887 17.054 115.581 17.108 115.257 17.108C114.933 17.108 114.627 17.054 114.339 16.946C114.051 16.838 113.802 16.685 113.592 16.487C113.382 16.289 113.214 16.052 113.088 15.776C112.968 15.494 112.908 15.182 112.908 14.84ZM113.988 14.84C113.988 15.008 114.015 15.17 114.069 15.326C114.129 15.482 114.213 15.62 114.321 15.74C114.435 15.86 114.57 15.956 114.726 16.028C114.882 16.1 115.059 16.136 115.257 16.136C115.455 16.136 115.632 16.1 115.788 16.028C115.944 15.956 116.076 15.86 116.184 15.74C116.298 15.62 116.382 15.482 116.436 15.326C116.496 15.17 116.526 15.008 116.526 14.84C116.526 14.672 116.496 14.51 116.436 14.354C116.382 14.198 116.298 14.06 116.184 13.94C116.076 13.82 115.944 13.724 115.788 13.652C115.632 13.58 115.455 13.544 115.257 13.544C115.059 13.544 114.882 13.58 114.726 13.652C114.57 13.724 114.435 13.82 114.321 13.94C114.213 14.06 114.129 14.198 114.069 14.354C114.015 14.51 113.988 14.672 113.988 14.84ZM118.617 12.68H119.643V13.373H119.661C119.763 13.157 119.919 12.971 120.129 12.815C120.339 12.653 120.624 12.572 120.984 12.572C121.272 12.572 121.515 12.62 121.713 12.716C121.917 12.812 122.082 12.938 122.208 13.094C122.334 13.25 122.424 13.43 122.478 13.634C122.532 13.838 122.559 14.051 122.559 14.273V17H121.479V14.813C121.479 14.693 121.473 14.561 121.461 14.417C121.449 14.267 121.416 14.129 121.362 14.003C121.314 13.871 121.236 13.763 121.128 13.679C121.02 13.589 120.873 13.544 120.687 13.544C120.507 13.544 120.354 13.574 120.228 13.634C120.108 13.694 120.006 13.775 119.922 13.877C119.844 13.979 119.787 14.096 119.751 14.228C119.715 14.36 119.697 14.498 119.697 14.642V17H118.617V12.68Z" fill="black"/>
<path d="M96.289 177.372H93.778C93.358 177.372 92.953 177.306 92.563 177.174C92.173 177.048 91.828 176.853 91.528 176.589C91.228 176.325 90.988 175.992 90.808 175.59C90.628 175.194 90.538 174.726 90.538 174.186C90.538 173.64 90.643 173.166 90.853 172.764C91.057 172.368 91.324 172.038 91.654 171.774C91.978 171.516 92.341 171.321 92.743 171.189C93.139 171.063 93.529 171 93.913 171H96.289V177.372ZM94.309 172.026C93.955 172.026 93.622 172.065 93.31 172.143C92.992 172.227 92.716 172.353 92.482 172.521C92.248 172.695 92.065 172.917 91.933 173.187C91.795 173.463 91.726 173.796 91.726 174.186C91.726 174.57 91.786 174.9 91.906 175.176C92.026 175.452 92.194 175.674 92.41 175.842C92.62 176.016 92.872 176.142 93.166 176.22C93.454 176.304 93.772 176.346 94.12 176.346H95.155V172.026H94.309ZM88.6949 172.782C88.6589 172.458 88.5329 172.206 88.3169 172.026C88.1009 171.846 87.8399 171.756 87.5339 171.756C87.2639 171.756 87.0389 171.81 86.8589 171.918C86.6729 172.032 86.5109 172.173 86.3729 172.341L85.5989 171.756C85.8509 171.444 86.1329 171.222 86.4449 171.09C86.7569 170.958 87.0839 170.892 87.4259 170.892C87.7499 170.892 88.0559 170.946 88.3439 171.054C88.6319 171.162 88.8809 171.315 89.0909 171.513C89.3009 171.711 89.4689 171.948 89.5949 172.224C89.7149 172.506 89.7749 172.818 89.7749 173.16C89.7749 173.502 89.7149 173.811 89.5949 174.087C89.4689 174.369 89.3009 174.609 89.0909 174.807C88.8809 175.005 88.6319 175.158 88.3439 175.266C88.0559 175.374 87.7499 175.428 87.4259 175.428C87.1259 175.428 86.8529 175.374 86.6069 175.266C86.3549 175.164 86.1419 175.014 85.9679 174.816C85.7879 174.618 85.6499 174.372 85.5539 174.078C85.4519 173.79 85.4009 173.457 85.4009 173.079V172.782H88.6949ZM86.4809 173.592C86.4869 173.91 86.5859 174.159 86.7779 174.339C86.9699 174.525 87.2369 174.618 87.5789 174.618C87.9029 174.618 88.1609 174.525 88.3529 174.339C88.5389 174.153 88.6529 173.904 88.6949 173.592H86.4809ZM84.9759 175.32H83.7969L82.6449 172.296H82.6269L81.4659 175.32H80.3589L82.0599 171H83.2119L84.9759 175.32ZM79.9669 174.159C79.9669 174.669 79.8829 175.131 79.7149 175.545C79.5469 175.965 79.3159 176.322 79.0219 176.616C78.7219 176.91 78.3679 177.135 77.9599 177.291C77.5459 177.453 77.0929 177.534 76.6009 177.534C76.1029 177.54 75.6469 177.465 75.2329 177.309C74.8189 177.159 74.4619 176.937 74.1619 176.643C73.8619 176.349 73.6279 175.995 73.4599 175.581C73.2919 175.167 73.2079 174.705 73.2079 174.195C73.2079 173.697 73.2919 173.244 73.4599 172.836C73.6279 172.428 73.8619 172.077 74.1619 171.783C74.4619 171.489 74.8189 171.258 75.2329 171.09C75.6469 170.928 76.1029 170.844 76.6009 170.838C77.0929 170.838 77.5459 170.916 77.9599 171.072C78.3679 171.234 78.7219 171.459 79.0219 171.747C79.3159 172.041 79.5469 172.392 79.7149 172.8C79.8829 173.208 79.9669 173.661 79.9669 174.159ZM78.7789 174.231C78.7789 173.889 78.7279 173.574 78.6259 173.286C78.5179 172.998 78.3679 172.749 78.1759 172.539C77.9839 172.329 77.7559 172.164 77.4919 172.044C77.2219 171.924 76.9219 171.864 76.5919 171.864C76.2619 171.864 75.9619 171.924 75.6919 172.044C75.4219 172.164 75.1909 172.329 74.9989 172.539C74.8069 172.749 74.6599 172.998 74.5579 173.286C74.4499 173.574 74.3959 173.889 74.3959 174.231C74.3959 174.549 74.4499 174.846 74.5579 175.122C74.6599 175.398 74.8069 175.638 74.9989 175.842C75.1909 176.052 75.4219 176.214 75.6919 176.328C75.9619 176.448 76.2619 176.508 76.5919 176.508C76.9219 176.508 77.2219 176.448 77.4919 176.328C77.7559 176.214 77.9839 176.052 78.1759 175.842C78.3679 175.638 78.5179 175.398 78.6259 175.122C78.7279 174.846 78.7789 174.549 78.7789 174.231ZM72.2269 175.32H71.2009V174.672H71.1829C71.0269 174.936 70.8169 175.128 70.5529 175.248C70.2889 175.368 70.0039 175.428 69.6979 175.428C69.3679 175.428 69.0709 175.368 68.8069 175.248C68.5429 175.134 68.3179 174.975 68.1319 174.771C67.9459 174.567 67.8049 174.327 67.7089 174.051C67.6129 173.775 67.5649 173.478 67.5649 173.16C67.5649 172.842 67.6159 172.545 67.7179 172.269C67.8199 171.993 67.9639 171.753 68.1499 171.549C68.3299 171.345 68.5489 171.183 68.8069 171.063C69.0649 170.949 69.3469 170.892 69.6529 170.892C69.8569 170.892 70.0369 170.913 70.1929 170.955C70.3489 170.997 70.4869 171.051 70.6069 171.117C70.7269 171.183 70.8289 171.252 70.9129 171.324C70.9969 171.402 71.0659 171.477 71.1199 171.549H71.1469V168.948H72.2269V175.32ZM68.6449 173.16C68.6449 173.328 68.6749 173.49 68.7349 173.646C68.7889 173.802 68.8729 173.94 68.9869 174.06C69.0949 174.18 69.2269 174.276 69.3829 174.348C69.5389 174.42 69.7159 174.456 69.9139 174.456C70.1119 174.456 70.2889 174.42 70.4449 174.348C70.6009 174.276 70.7359 174.18 70.8499 174.06C70.9579 173.94 71.0419 173.802 71.1019 173.646C71.1559 173.49 71.1829 173.328 71.1829 173.16C71.1829 172.992 71.1559 172.83 71.1019 172.674C71.0419 172.518 70.9579 172.38 70.8499 172.26C70.7359 172.14 70.6009 172.044 70.4449 171.972C70.2889 171.9 70.1119 171.864 69.9139 171.864C69.7159 171.864 69.5389 171.9 69.3829 171.972C69.2269 172.044 69.0949 172.14 68.9869 172.26C68.8729 172.38 68.7889 172.518 68.7349 172.674C68.6749 172.83 68.6449 172.992 68.6449 173.16ZM64.2539 174.123C64.4639 174.417 64.7459 174.564 65.0999 174.564C65.2439 174.564 65.3849 174.528 65.5229 174.456C65.6609 174.384 65.7299 174.267 65.7299 174.105C65.7299 173.973 65.6729 173.877 65.5589 173.817C65.4449 173.757 65.3009 173.706 65.1269 173.664C64.9529 173.622 64.7669 173.577 64.5689 173.529C64.3649 173.487 64.1759 173.418 64.0019 173.322C63.8279 173.232 63.6839 173.106 63.5699 172.944C63.4559 172.782 63.3989 172.56 63.3989 172.278C63.3989 172.02 63.4559 171.801 63.5699 171.621C63.6779 171.447 63.8219 171.306 64.0019 171.198C64.1759 171.09 64.3739 171.012 64.5959 170.964C64.8179 170.916 65.0399 170.892 65.2619 170.892C65.5979 170.892 65.9069 170.94 66.1889 171.036C66.4709 171.132 66.7229 171.306 66.9449 171.558L66.2249 172.233C66.0869 172.077 65.9399 171.948 65.7839 171.846C65.6219 171.75 65.4269 171.702 65.1989 171.702C65.1209 171.702 65.0399 171.711 64.9559 171.729C64.8719 171.747 64.7939 171.777 64.7219 171.819C64.6499 171.861 64.5929 171.912 64.5509 171.972C64.5029 172.038 64.4789 172.113 64.4789 172.197C64.4789 172.347 64.5359 172.458 64.6499 172.53C64.7639 172.602 64.9079 172.659 65.0819 172.701C65.2559 172.749 65.4449 172.791 65.6489 172.827C65.8469 172.869 66.0329 172.932 66.2069 173.016C66.3809 173.106 66.5249 173.229 66.6389 173.385C66.7529 173.541 66.8099 173.757 66.8099 174.033C66.8099 174.273 66.7619 174.48 66.6659 174.654C66.5639 174.834 66.4319 174.981 66.2699 175.095C66.1079 175.209 65.9219 175.293 65.7119 175.347C65.5019 175.401 65.2889 175.428 65.0729 175.428C64.7849 175.428 64.4999 175.377 64.2179 175.275C63.9359 175.179 63.7079 175.011 63.5339 174.771L64.2539 174.123ZM62.5049 170.568L63.2519 170.838L60.4439 177.822L59.6969 177.534L62.5049 170.568ZM58.9889 177.372H57.8549V171H58.9889V177.372ZM56.556 175.32H55.53V174.627H55.512C55.41 174.843 55.254 175.029 55.044 175.185C54.834 175.347 54.549 175.428 54.189 175.428C53.901 175.428 53.658 175.38 53.46 175.284C53.256 175.188 53.091 175.062 52.965 174.906C52.839 174.75 52.749 174.57 52.695 174.366C52.641 174.162 52.614 173.949 52.614 173.727V171H53.694V173.187C53.694 173.307 53.7 173.439 53.712 173.583C53.724 173.733 53.757 173.871 53.811 173.997C53.859 174.129 53.937 174.237 54.045 174.321C54.153 174.411 54.3 174.456 54.486 174.456C54.666 174.456 54.819 174.426 54.945 174.366C55.065 174.306 55.167 174.225 55.251 174.123C55.329 174.021 55.386 173.904 55.422 173.772C55.458 173.64 55.476 173.502 55.476 173.358V171H56.556V175.32ZM51.892 174.402V175.32H51.001V176.571H49.921V175.32H48.733V174.402H49.921V172.512C49.921 172.296 49.882 172.125 49.804 171.999C49.72 171.873 49.558 171.81 49.318 171.81C49.222 171.81 49.117 171.819 49.003 171.837C48.889 171.861 48.799 171.897 48.733 171.945V171.036C48.847 170.982 48.988 170.946 49.156 170.928C49.318 170.904 49.462 170.892 49.588 170.892C49.876 170.892 50.113 170.925 50.299 170.991C50.479 171.051 50.623 171.144 50.731 171.27C50.833 171.402 50.905 171.564 50.947 171.756C50.983 171.948 51.001 172.17 51.001 172.422V174.402H51.892ZM47.026 172.782C46.99 172.458 46.864 172.206 46.648 172.026C46.432 171.846 46.171 171.756 45.865 171.756C45.595 171.756 45.37 171.81 45.19 171.918C45.004 172.032 44.842 172.173 44.704 172.341L43.93 171.756C44.182 171.444 44.464 171.222 44.776 171.09C45.088 170.958 45.415 170.892 45.757 170.892C46.081 170.892 46.387 170.946 46.675 171.054C46.963 171.162 47.212 171.315 47.422 171.513C47.632 171.711 47.8 171.948 47.926 172.224C48.046 172.506 48.106 172.818 48.106 173.16C48.106 173.502 48.046 173.811 47.926 174.087C47.8 174.369 47.632 174.609 47.422 174.807C47.212 175.005 46.963 175.158 46.675 175.266C46.387 175.374 46.081 175.428 45.757 175.428C45.457 175.428 45.184 175.374 44.938 175.266C44.686 175.164 44.473 175.014 44.299 174.816C44.119 174.618 43.981 174.372 43.885 174.078C43.783 173.79 43.732 173.457 43.732 173.079V172.782H47.026ZM44.812 173.592C44.818 173.91 44.917 174.159 45.109 174.339C45.301 174.525 45.568 174.618 45.91 174.618C46.234 174.618 46.492 174.525 46.684 174.339C46.87 174.153 46.984 173.904 47.026 173.592H44.812ZM38.276 175.32V171.387C38.276 170.997 38.324 170.646 38.42 170.334C38.516 170.016 38.666 169.749 38.87 169.533C39.068 169.311 39.32 169.14 39.626 169.02C39.932 168.9 40.295 168.84 40.715 168.84C41.117 168.84 41.498 168.891 41.858 168.993C42.218 169.095 42.551 169.281 42.857 169.551L42.209 170.433C41.993 170.235 41.768 170.082 41.534 169.974C41.3 169.866 41.03 169.812 40.724 169.812C40.466 169.812 40.25 169.848 40.076 169.92C39.896 169.992 39.755 170.091 39.653 170.217C39.545 170.343 39.47 170.496 39.428 170.676C39.38 170.85 39.356 171.045 39.356 171.261V171.576H39.374C39.53 171.366 39.737 171.207 39.995 171.099C40.253 170.997 40.517 170.946 40.787 170.946C41.111 170.946 41.405 171.003 41.669 171.117C41.933 171.237 42.161 171.396 42.353 171.594C42.539 171.792 42.683 172.026 42.785 172.296C42.887 172.566 42.938 172.854 42.938 173.16C42.938 173.478 42.89 173.775 42.794 174.051C42.698 174.327 42.557 174.567 42.371 174.771C42.185 174.975 41.963 175.134 41.705 175.248C41.441 175.368 41.141 175.428 40.805 175.428C40.499 175.428 40.214 175.368 39.95 175.248C39.686 175.128 39.476 174.936 39.32 174.672H39.302V175.32H38.276ZM40.58 174.456C40.772 174.456 40.946 174.423 41.102 174.357C41.258 174.297 41.393 174.21 41.507 174.096C41.615 173.988 41.702 173.853 41.768 173.691C41.828 173.535 41.858 173.361 41.858 173.169C41.858 172.995 41.828 172.833 41.768 172.683C41.702 172.533 41.612 172.401 41.498 172.287C41.384 172.173 41.249 172.083 41.093 172.017C40.937 171.951 40.769 171.918 40.589 171.918C40.391 171.918 40.214 171.951 40.058 172.017C39.896 172.083 39.761 172.17 39.653 172.278C39.539 172.392 39.452 172.527 39.392 172.683C39.332 172.839 39.302 173.007 39.302 173.187C39.302 173.565 39.416 173.871 39.644 174.105C39.872 174.339 40.184 174.456 40.58 174.456ZM37.053 175.32H35.973V174.636H35.955C35.835 174.888 35.664 175.083 35.442 175.221C35.22 175.359 34.965 175.428 34.677 175.428C34.611 175.428 34.548 175.422 34.488 175.41C34.422 175.398 34.356 175.383 34.29 175.365V174.321C34.38 174.345 34.47 174.363 34.56 174.375C34.644 174.393 34.728 174.402 34.812 174.402C35.064 174.402 35.268 174.354 35.424 174.258C35.574 174.168 35.691 174.063 35.775 173.943C35.853 173.823 35.907 173.703 35.937 173.583C35.961 173.463 35.973 173.373 35.973 173.313V171H37.053V175.32ZM30.855 171.594H30.882C31.038 171.348 31.236 171.168 31.476 171.054C31.716 170.946 31.98 170.892 32.268 170.892C32.466 170.892 32.661 170.919 32.853 170.973C33.039 171.027 33.207 171.108 33.357 171.216C33.501 171.324 33.618 171.459 33.708 171.621C33.798 171.783 33.843 171.972 33.843 172.188C33.843 172.422 33.801 172.62 33.717 172.782C33.633 172.95 33.522 173.088 33.384 173.196C33.24 173.31 33.075 173.4 32.889 173.466C32.703 173.532 32.511 173.58 32.313 173.61C32.109 173.646 31.905 173.667 31.701 173.673C31.497 173.685 31.305 173.691 31.125 173.691H30.855V173.808C30.855 174.078 30.948 174.279 31.134 174.411C31.32 174.549 31.557 174.618 31.845 174.618C32.073 174.618 32.286 174.576 32.484 174.492C32.682 174.414 32.853 174.306 32.997 174.168L33.564 174.735C33.324 174.981 33.045 175.158 32.727 175.266C32.403 175.374 32.07 175.428 31.728 175.428C31.422 175.428 31.164 175.392 30.954 175.32C30.744 175.254 30.57 175.167 30.432 175.059C30.294 174.951 30.189 174.825 30.117 174.681C30.039 174.543 29.985 174.402 29.955 174.258C29.919 174.114 29.898 173.973 29.892 173.835C29.886 173.703 29.883 173.586 29.883 173.484V171H30.855V171.594ZM30.918 172.935H31.143C31.293 172.935 31.461 172.929 31.647 172.917C31.833 172.905 32.01 172.875 32.178 172.827C32.34 172.785 32.478 172.719 32.592 172.629C32.706 172.545 32.763 172.425 32.763 172.269C32.763 172.167 32.742 172.08 32.7 172.008C32.652 171.942 32.592 171.885 32.52 171.837C32.448 171.789 32.367 171.753 32.277 171.729C32.187 171.711 32.097 171.702 32.007 171.702C31.635 171.702 31.362 171.789 31.188 171.963C31.008 172.143 30.918 172.386 30.918 172.692V172.935ZM29.225 174.402V175.32H28.334V176.571H27.254V175.32H26.066V174.402H27.254V172.512C27.254 172.296 27.215 172.125 27.137 171.999C27.053 171.873 26.891 171.81 26.651 171.81C26.555 171.81 26.45 171.819 26.336 171.837C26.222 171.861 26.132 171.897 26.066 171.945V171.036C26.18 170.982 26.321 170.946 26.489 170.928C26.651 170.904 26.795 170.892 26.921 170.892C27.209 170.892 27.446 170.925 27.632 170.991C27.812 171.051 27.956 171.144 28.064 171.27C28.166 171.402 28.238 171.564 28.28 171.756C28.316 171.948 28.334 172.17 28.334 172.422V174.402H29.225ZM25.1962 175.32H24.1162V171H25.1962V175.32ZM25.3492 176.787C25.3492 176.961 25.2862 177.111 25.1602 177.237C25.0282 177.369 24.8632 177.435 24.6652 177.435C24.4672 177.435 24.3022 177.372 24.1702 177.246C24.0322 177.126 23.9632 176.973 23.9632 176.787C23.9632 176.601 24.0322 176.445 24.1702 176.319C24.3022 176.199 24.4672 176.139 24.6652 176.139C24.8632 176.139 25.0282 176.202 25.1602 176.328C25.2862 176.46 25.3492 176.613 25.3492 176.787ZM23.0923 173.16C23.0923 173.502 23.0323 173.811 22.9123 174.087C22.7863 174.369 22.6183 174.609 22.4083 174.807C22.1983 175.005 21.9493 175.158 21.6613 175.266C21.3733 175.374 21.0673 175.428 20.7433 175.428C20.4193 175.428 20.1133 175.374 19.8253 175.266C19.5373 175.158 19.2883 175.005 19.0783 174.807C18.8683 174.609 18.7033 174.369 18.5833 174.087C18.4573 173.811 18.3943 173.502 18.3943 173.16C18.3943 172.818 18.4573 172.506 18.5833 172.224C18.7033 171.948 18.8683 171.711 19.0783 171.513C19.2883 171.315 19.5373 171.162 19.8253 171.054C20.1133 170.946 20.4193 170.892 20.7433 170.892C21.0673 170.892 21.3733 170.946 21.6613 171.054C21.9493 171.162 22.1983 171.315 22.4083 171.513C22.6183 171.711 22.7863 171.948 22.9123 172.224C23.0323 172.506 23.0923 172.818 23.0923 173.16ZM22.0123 173.16C22.0123 172.992 21.9853 172.83 21.9313 172.674C21.8713 172.518 21.7873 172.38 21.6793 172.26C21.5653 172.14 21.4303 172.044 21.2743 171.972C21.1183 171.9 20.9413 171.864 20.7433 171.864C20.5453 171.864 20.3683 171.9 20.2123 171.972C20.0563 172.044 19.9243 172.14 19.8163 172.26C19.7023 172.38 19.6183 172.518 19.5643 172.674C19.5043 172.83 19.4743 172.992 19.4743 173.16C19.4743 173.328 19.5043 173.49 19.5643 173.646C19.6183 173.802 19.7023 173.94 19.8163 174.06C19.9243 174.18 20.0563 174.276 20.2123 174.348C20.3683 174.42 20.5453 174.456 20.7433 174.456C20.9413 174.456 21.1183 174.42 21.2743 174.348C21.4303 174.276 21.5653 174.18 21.6793 174.06C21.7873 173.94 21.8713 173.802 21.9313 173.646C21.9853 173.49 22.0123 173.328 22.0123 173.16ZM17.3831 175.32H16.3571V174.627H16.3391C16.2371 174.843 16.0811 175.029 15.8711 175.185C15.6611 175.347 15.3761 175.428 15.0161 175.428C14.7281 175.428 14.4851 175.38 14.2871 175.284C14.0831 175.188 13.9181 175.062 13.7921 174.906C13.6661 174.75 13.5761 174.57 13.5221 174.366C13.4681 174.162 13.4411 173.949 13.4411 173.727V171H14.5211V173.187C14.5211 173.307 14.5271 173.439 14.5391 173.583C14.5511 173.733 14.5841 173.871 14.6381 173.997C14.6861 174.129 14.7641 174.237 14.8721 174.321C14.9801 174.411 15.1271 174.456 15.3131 174.456C15.4931 174.456 15.6461 174.426 15.7721 174.366C15.8921 174.306 15.9941 174.225 16.0781 174.123C16.1561 174.021 16.2131 173.904 16.2491 173.772C16.2851 173.64 16.3031 173.502 16.3031 173.358V171H17.3831V175.32Z" fill="black"/>
<path d="M28 142L107 47" stroke="black" stroke-linecap="round"/>
<path d="M13.2664 14.9542C13.2664 16.1546 14.2106 17.0837 15.4109 17.0837C16.0789 17.0837 16.7619 16.8627 17.0582 16.2751H17.1084C17.1084 16.9431 16.3752 17.4955 16.0789 17.8069C15.7173 18.1836 15.9382 18.7059 16.4053 18.7059H19.5945C20.0565 18.7059 20.2775 18.1836 19.9159 17.8069C19.6196 17.4955 18.8863 16.9431 18.8863 16.2751H18.9416C19.2329 16.8627 19.9209 17.0837 20.5839 17.0837C21.7842 17.0837 22.7334 16.1546 22.7334 14.9542C22.7334 13.7489 21.8194 12.7293 20.619 12.7293C20.162 12.7293 19.6899 12.885 19.3183 13.1763C19.941 12.6691 20.162 12.0312 20.162 11.4587C20.162 10.2584 19.1927 9.29407 17.9974 9.29407C16.8071 9.29407 15.8378 10.2584 15.8378 11.4587C15.8378 12.0312 16.0537 12.6691 16.6765 13.1763C16.3099 12.885 15.8328 12.7293 15.3757 12.7293C14.1754 12.7293 13.2664 13.7489 13.2664 14.9542Z" fill="black"/>
<path d="M122.733 173.046C122.733 171.845 121.789 170.916 120.589 170.916C119.921 170.916 119.238 171.137 118.942 171.725H118.891C118.891 171.057 119.625 170.504 119.921 170.193C120.283 169.816 120.062 169.294 119.594 169.294H116.405C115.943 169.294 115.722 169.816 116.084 170.193C116.38 170.504 117.113 171.057 117.113 171.725H117.058C116.767 171.137 116.079 170.916 115.416 170.916C114.216 170.916 113.266 171.845 113.266 173.046C113.266 174.251 114.18 175.271 115.381 175.271C115.838 175.271 116.31 175.115 116.681 174.824C116.059 175.331 115.838 175.969 115.838 176.541C115.838 177.742 116.807 178.706 118.002 178.706C119.193 178.706 120.162 177.742 120.162 176.541C120.162 175.969 119.946 175.331 119.323 174.824C119.69 175.115 120.167 175.271 120.624 175.271C121.824 175.271 122.733 174.251 122.733 173.046Z" fill="black"/>
<path d="M46.3036 49.7149C46.8018 48.3463 47.9524 47.5361 49.203 47.9913L73.1776 56.7169C75.3486 57.507 76.1891 59.0158 76.328 60.9102C76.4775 62.9955 76.3807 64.5104 75.0409 68.1915C72.0177 76.4977 65.7539 80.4177 62.5761 89.1485C61.3136 92.6171 61.3554 95.1445 61.4003 95.8292L64.7343 97.0421L62.1415 100.16L33.997 89.9171C31.8497 89.1355 30.9855 87.6182 30.8466 85.7237C30.697 83.6384 30.8026 82.1002 32.1425 78.419C35.3288 69.6646 41.6075 65.7768 44.6308 57.4708C46.108 53.4121 45.8828 50.8711 46.3036 49.7149Z" fill="black"/>
<path d="M88.5716 139.349C88.0735 140.718 86.9228 141.528 85.6722 141.073L61.6976 132.347C59.5267 131.557 58.6862 130.048 58.5472 128.154C58.3977 126.068 58.4945 124.554 59.8343 120.872C62.8575 112.566 69.1214 108.646 72.2992 99.9155C73.5616 96.4469 73.5199 93.9195 73.475 93.2348L70.141 92.0219L72.7337 88.9037L100.878 99.1469C103.026 99.9284 103.89 101.446 104.029 103.34C104.178 105.426 104.073 106.964 102.733 110.645C99.5464 119.399 93.2677 123.287 90.2445 131.593C88.7673 135.652 88.9925 138.193 88.5716 139.349Z" fill="black"/>
</svg>
