<svg width="136" height="189" viewBox="0 0 136 189" fill="none" xmlns="http://www.w3.org/2000/svg">
<rect width="136" height="189" rx="8.5" fill="#646464"/>
<path d="M85.711 10.628H89.824V11.654H86.845V13.328H89.653V14.354H86.845V17H85.711V10.628ZM90.78 12.68H91.86V13.364H91.878C91.998 13.112 92.169 12.917 92.391 12.779C92.613 12.641 92.868 12.572 93.156 12.572C93.222 12.572 93.285 12.578 93.345 12.59C93.411 12.602 93.477 12.617 93.543 12.635V13.679C93.453 13.655 93.363 13.637 93.273 13.625C93.189 13.607 93.105 13.598 93.021 13.598C92.769 13.598 92.565 13.646 92.409 13.742C92.259 13.832 92.142 13.937 92.058 14.057C91.98 14.177 91.926 14.297 91.896 14.417C91.872 14.537 91.86 14.627 91.86 14.687V17H90.78V12.68ZM93.9038 14.84C93.9038 14.498 93.9638 14.189 94.0838 13.913C94.2098 13.631 94.3778 13.391 94.5878 13.193C94.7978 12.995 95.0468 12.842 95.3348 12.734C95.6228 12.626 95.9288 12.572 96.2528 12.572C96.5768 12.572 96.8828 12.626 97.1708 12.734C97.4588 12.842 97.7078 12.995 97.9178 13.193C98.1278 13.391 98.2928 13.631 98.4128 13.913C98.5388 14.189 98.6018 14.498 98.6018 14.84C98.6018 15.182 98.5388 15.494 98.4128 15.776C98.2928 16.052 98.1278 16.289 97.9178 16.487C97.7078 16.685 97.4588 16.838 97.1708 16.946C96.8828 17.054 96.5768 17.108 96.2528 17.108C95.9288 17.108 95.6228 17.054 95.3348 16.946C95.0468 16.838 94.7978 16.685 94.5878 16.487C94.3778 16.289 94.2098 16.052 94.0838 15.776C93.9638 15.494 93.9038 15.182 93.9038 14.84ZM94.9838 14.84C94.9838 15.008 95.0108 15.17 95.0648 15.326C95.1248 15.482 95.2088 15.62 95.3168 15.74C95.4308 15.86 95.5658 15.956 95.7218 16.028C95.8778 16.1 96.0548 16.136 96.2528 16.136C96.4508 16.136 96.6278 16.1 96.7838 16.028C96.9398 15.956 97.0718 15.86 97.1798 15.74C97.2938 15.62 97.3778 15.482 97.4318 15.326C97.4918 15.17 97.5218 15.008 97.5218 14.84C97.5218 14.672 97.4918 14.51 97.4318 14.354C97.3778 14.198 97.2938 14.06 97.1798 13.94C97.0718 13.82 96.9398 13.724 96.7838 13.652C96.6278 13.58 96.4508 13.544 96.2528 13.544C96.0548 13.544 95.8778 13.58 95.7218 13.652C95.5658 13.724 95.4308 13.82 95.3168 13.94C95.2088 14.06 95.1248 14.198 95.0648 14.354C95.0108 14.51 94.9838 14.672 94.9838 14.84ZM99.613 12.68H100.639V13.373H100.657C100.759 13.157 100.915 12.971 101.125 12.815C101.335 12.653 101.62 12.572 101.98 12.572C102.268 12.572 102.511 12.62 102.709 12.716C102.913 12.812 103.078 12.938 103.204 13.094C103.33 13.25 103.42 13.43 103.474 13.634C103.528 13.838 103.555 14.051 103.555 14.273V17H102.475V14.813C102.475 14.693 102.469 14.561 102.457 14.417C102.445 14.267 102.412 14.129 102.358 14.003C102.31 13.871 102.232 13.763 102.124 13.679C102.016 13.589 101.869 13.544 101.683 13.544C101.503 13.544 101.35 13.574 101.224 13.634C101.104 13.694 101.002 13.775 100.918 13.877C100.84 13.979 100.783 14.096 100.747 14.228C100.711 14.36 100.693 14.498 100.693 14.642V17H99.613V12.68ZM104.277 13.598V12.68H105.168V11.429H106.248V12.68H107.436V13.598H106.248V15.488C106.248 15.704 106.287 15.875 106.365 16.001C106.449 16.127 106.611 16.19 106.851 16.19C106.947 16.19 107.052 16.181 107.166 16.163C107.28 16.139 107.37 16.103 107.436 16.055V16.964C107.322 17.018 107.181 17.054 107.013 17.072C106.851 17.096 106.707 17.108 106.581 17.108C106.293 17.108 106.056 17.075 105.87 17.009C105.69 16.949 105.546 16.856 105.438 16.73C105.336 16.598 105.264 16.436 105.222 16.244C105.186 16.052 105.168 15.83 105.168 15.578V13.598H104.277ZM109.143 15.218C109.179 15.542 109.305 15.794 109.521 15.974C109.737 16.154 109.998 16.244 110.304 16.244C110.574 16.244 110.799 16.19 110.979 16.082C111.165 15.968 111.327 15.827 111.465 15.659L112.239 16.244C111.987 16.556 111.705 16.778 111.393 16.91C111.081 17.042 110.754 17.108 110.412 17.108C110.088 17.108 109.782 17.054 109.494 16.946C109.206 16.838 108.957 16.685 108.747 16.487C108.537 16.289 108.369 16.052 108.243 15.776C108.123 15.494 108.063 15.182 108.063 14.84C108.063 14.498 108.123 14.189 108.243 13.913C108.369 13.631 108.537 13.391 108.747 13.193C108.957 12.995 109.206 12.842 109.494 12.734C109.782 12.626 110.088 12.572 110.412 12.572C110.712 12.572 110.985 12.626 111.231 12.734C111.483 12.836 111.696 12.986 111.87 13.184C112.05 13.382 112.188 13.628 112.284 13.922C112.386 14.21 112.437 14.543 112.437 14.921V15.218H109.143ZM111.357 14.408C111.351 14.09 111.252 13.841 111.06 13.661C110.868 13.475 110.601 13.382 110.259 13.382C109.935 13.382 109.677 13.475 109.485 13.661C109.299 13.847 109.185 14.096 109.143 14.408H111.357ZM113.447 12.68H114.473V13.373H114.491C114.593 13.157 114.749 12.971 114.959 12.815C115.169 12.653 115.454 12.572 115.814 12.572C116.102 12.572 116.345 12.62 116.543 12.716C116.747 12.812 116.912 12.938 117.038 13.094C117.164 13.25 117.254 13.43 117.308 13.634C117.362 13.838 117.389 14.051 117.389 14.273V17H116.309V14.813C116.309 14.693 116.303 14.561 116.291 14.417C116.279 14.267 116.246 14.129 116.192 14.003C116.144 13.871 116.066 13.763 115.958 13.679C115.85 13.589 115.703 13.544 115.517 13.544C115.337 13.544 115.184 13.574 115.058 13.634C114.938 13.694 114.836 13.775 114.752 13.877C114.674 13.979 114.617 14.096 114.581 14.228C114.545 14.36 114.527 14.498 114.527 14.642V17H113.447V12.68ZM122.035 16.352H122.017C121.861 16.616 121.651 16.808 121.387 16.928C121.123 17.048 120.838 17.108 120.532 17.108C120.196 17.108 119.896 17.051 119.632 16.937C119.374 16.817 119.152 16.655 118.966 16.451C118.78 16.247 118.639 16.007 118.543 15.731C118.447 15.455 118.399 15.158 118.399 14.84C118.399 14.522 118.45 14.225 118.552 13.949C118.654 13.673 118.795 13.433 118.975 13.229C119.161 13.025 119.383 12.866 119.641 12.752C119.899 12.632 120.181 12.572 120.487 12.572C120.691 12.572 120.871 12.593 121.027 12.635C121.183 12.677 121.321 12.731 121.441 12.797C121.561 12.863 121.663 12.935 121.747 13.013C121.831 13.085 121.9 13.157 121.954 13.229H121.981V10.196H123.061V17H122.035V16.352ZM119.479 14.84C119.479 15.008 119.506 15.17 119.56 15.326C119.62 15.482 119.704 15.62 119.812 15.74C119.926 15.86 120.061 15.956 120.217 16.028C120.373 16.1 120.55 16.136 120.748 16.136C120.946 16.136 121.123 16.1 121.279 16.028C121.435 15.956 121.567 15.86 121.675 15.74C121.789 15.62 121.873 15.482 121.927 15.326C121.987 15.17 122.017 15.008 122.017 14.84C122.017 14.672 121.987 14.51 121.927 14.354C121.873 14.198 121.789 14.06 121.675 13.94C121.567 13.82 121.435 13.724 121.279 13.652C121.123 13.58 120.946 13.544 120.748 13.544C120.55 13.544 120.373 13.58 120.217 13.652C120.061 13.724 119.926 13.82 119.812 13.94C119.704 14.06 119.62 14.198 119.56 14.354C119.506 14.51 119.479 14.672 119.479 14.84Z" fill="black"/>
<path d="M50.289 178.372H46.176V177.346H49.155V175.672H46.347V174.646H49.155V172H50.289V178.372ZM45.22 176.32H44.14V175.636H44.122C44.002 175.888 43.831 176.083 43.609 176.221C43.387 176.359 43.132 176.428 42.844 176.428C42.778 176.428 42.715 176.422 42.655 176.41C42.589 176.398 42.523 176.383 42.457 176.365V175.321C42.547 175.345 42.637 175.363 42.727 175.375C42.811 175.393 42.895 175.402 42.979 175.402C43.231 175.402 43.435 175.354 43.591 175.258C43.741 175.168 43.858 175.063 43.942 174.943C44.02 174.823 44.074 174.703 44.104 174.583C44.128 174.463 44.14 174.373 44.14 174.313V172H45.22V176.32ZM42.0962 174.16C42.0962 174.502 42.0362 174.811 41.9162 175.087C41.7902 175.369 41.6222 175.609 41.4122 175.807C41.2022 176.005 40.9532 176.158 40.6652 176.266C40.3772 176.374 40.0712 176.428 39.7472 176.428C39.4232 176.428 39.1172 176.374 38.8292 176.266C38.5412 176.158 38.2922 176.005 38.0822 175.807C37.8722 175.609 37.7072 175.369 37.5872 175.087C37.4612 174.811 37.3982 174.502 37.3982 174.16C37.3982 173.818 37.4612 173.506 37.5872 173.224C37.7072 172.948 37.8722 172.711 38.0822 172.513C38.2922 172.315 38.5412 172.162 38.8292 172.054C39.1172 171.946 39.4232 171.892 39.7472 171.892C40.0712 171.892 40.3772 171.946 40.6652 172.054C40.9532 172.162 41.2022 172.315 41.4122 172.513C41.6222 172.711 41.7902 172.948 41.9162 173.224C42.0362 173.506 42.0962 173.818 42.0962 174.16ZM41.0162 174.16C41.0162 173.992 40.9892 173.83 40.9352 173.674C40.8752 173.518 40.7912 173.38 40.6832 173.26C40.5692 173.14 40.4342 173.044 40.2782 172.972C40.1222 172.9 39.9452 172.864 39.7472 172.864C39.5492 172.864 39.3722 172.9 39.2162 172.972C39.0602 173.044 38.9282 173.14 38.8202 173.26C38.7062 173.38 38.6222 173.518 38.5682 173.674C38.5082 173.83 38.4782 173.992 38.4782 174.16C38.4782 174.328 38.5082 174.49 38.5682 174.646C38.6222 174.802 38.7062 174.94 38.8202 175.06C38.9282 175.18 39.0602 175.276 39.2162 175.348C39.3722 175.42 39.5492 175.456 39.7472 175.456C39.9452 175.456 40.1222 175.42 40.2782 175.348C40.4342 175.276 40.5692 175.18 40.6832 175.06C40.7912 174.94 40.8752 174.802 40.9352 174.646C40.9892 174.49 41.0162 174.328 41.0162 174.16ZM36.387 176.32H35.361V175.627H35.343C35.241 175.843 35.085 176.029 34.875 176.185C34.665 176.347 34.38 176.428 34.02 176.428C33.732 176.428 33.489 176.38 33.291 176.284C33.087 176.188 32.922 176.062 32.796 175.906C32.67 175.75 32.58 175.57 32.526 175.366C32.472 175.162 32.445 174.949 32.445 174.727V172H33.525V174.187C33.525 174.307 33.531 174.439 33.543 174.583C33.555 174.733 33.588 174.871 33.642 174.997C33.69 175.129 33.768 175.237 33.876 175.321C33.984 175.411 34.131 175.456 34.317 175.456C34.497 175.456 34.65 175.426 34.776 175.366C34.896 175.306 34.998 175.225 35.082 175.123C35.16 175.021 35.217 174.904 35.253 174.772C35.289 174.64 35.307 174.502 35.307 174.358V172H36.387V176.32ZM31.7231 175.402V176.32H30.8321V177.571H29.7521V176.32H28.5641V175.402H29.7521V173.512C29.7521 173.296 29.7131 173.125 29.6351 172.999C29.5511 172.873 29.3891 172.81 29.1491 172.81C29.0531 172.81 28.9481 172.819 28.8341 172.837C28.7201 172.861 28.6301 172.897 28.5641 172.945V172.036C28.6781 171.982 28.8191 171.946 28.9871 171.928C29.1491 171.904 29.2931 171.892 29.4191 171.892C29.7071 171.892 29.9441 171.925 30.1301 171.991C30.3101 172.051 30.4541 172.144 30.5621 172.27C30.6641 172.402 30.7361 172.564 30.7781 172.756C30.8141 172.948 30.8321 173.17 30.8321 173.422V175.402H31.7231ZM26.857 173.782C26.821 173.458 26.695 173.206 26.479 173.026C26.263 172.846 26.002 172.756 25.696 172.756C25.426 172.756 25.201 172.81 25.021 172.918C24.835 173.032 24.673 173.173 24.535 173.341L23.761 172.756C24.013 172.444 24.295 172.222 24.607 172.09C24.919 171.958 25.246 171.892 25.588 171.892C25.912 171.892 26.218 171.946 26.506 172.054C26.794 172.162 27.043 172.315 27.253 172.513C27.463 172.711 27.631 172.948 27.757 173.224C27.877 173.506 27.937 173.818 27.937 174.16C27.937 174.502 27.877 174.811 27.757 175.087C27.631 175.369 27.463 175.609 27.253 175.807C27.043 176.005 26.794 176.158 26.506 176.266C26.218 176.374 25.912 176.428 25.588 176.428C25.288 176.428 25.015 176.374 24.769 176.266C24.517 176.164 24.304 176.014 24.13 175.816C23.95 175.618 23.812 175.372 23.716 175.078C23.614 174.79 23.563 174.457 23.563 174.079V173.782H26.857ZM24.643 174.592C24.649 174.91 24.748 175.159 24.94 175.339C25.132 175.525 25.399 175.618 25.741 175.618C26.065 175.618 26.323 175.525 26.515 175.339C26.701 175.153 26.815 174.904 26.857 174.592H24.643ZM22.553 176.32H21.527V175.627H21.509C21.407 175.843 21.251 176.029 21.041 176.185C20.831 176.347 20.546 176.428 20.186 176.428C19.898 176.428 19.655 176.38 19.457 176.284C19.253 176.188 19.088 176.062 18.962 175.906C18.836 175.75 18.746 175.57 18.692 175.366C18.638 175.162 18.611 174.949 18.611 174.727V172H19.691V174.187C19.691 174.307 19.697 174.439 19.709 174.583C19.721 174.733 19.754 174.871 19.808 174.997C19.856 175.129 19.934 175.237 20.042 175.321C20.15 175.411 20.297 175.456 20.483 175.456C20.663 175.456 20.816 175.426 20.942 175.366C21.062 175.306 21.164 175.225 21.248 175.123C21.326 175.021 21.383 174.904 21.419 174.772C21.455 174.64 21.473 174.502 21.473 174.358V172H22.553V176.32ZM13.9651 172.648H13.9831C14.1391 172.384 14.3491 172.192 14.6131 172.072C14.8771 171.952 15.1621 171.892 15.4681 171.892C15.8041 171.892 16.1041 171.949 16.3681 172.063C16.6261 172.183 16.8481 172.345 17.0341 172.549C17.2201 172.753 17.3611 172.993 17.4571 173.269C17.5531 173.545 17.6011 173.842 17.6011 174.16C17.6011 174.478 17.5501 174.775 17.4481 175.051C17.3461 175.327 17.2051 175.567 17.0251 175.771C16.8391 175.975 16.6171 176.134 16.3591 176.248C16.1011 176.368 15.8191 176.428 15.5131 176.428C15.3091 176.428 15.1291 176.407 14.9731 176.365C14.8171 176.323 14.6791 176.269 14.5591 176.203C14.4391 176.137 14.3371 176.065 14.2531 175.987C14.1691 175.915 14.1001 175.843 14.0461 175.771H14.0191V178.804H12.9391V172H13.9651V172.648ZM16.5211 174.16C16.5211 173.992 16.4941 173.83 16.4401 173.674C16.3801 173.518 16.2961 173.38 16.1881 173.26C16.0741 173.14 15.9391 173.044 15.7831 172.972C15.6271 172.9 15.4501 172.864 15.2521 172.864C15.0541 172.864 14.8771 172.9 14.7211 172.972C14.5651 173.044 14.4331 173.14 14.3251 173.26C14.2111 173.38 14.1271 173.518 14.0731 173.674C14.0131 173.83 13.9831 173.992 13.9831 174.16C13.9831 174.328 14.0131 174.49 14.0731 174.646C14.1271 174.802 14.2111 174.94 14.3251 175.06C14.4331 175.18 14.5651 175.276 14.7211 175.348C14.8771 175.42 15.0541 175.456 15.2521 175.456C15.4501 175.456 15.6271 175.42 15.7831 175.348C15.9391 175.276 16.0741 175.18 16.1881 175.06C16.2961 174.94 16.3801 174.802 16.4401 174.646C16.4941 174.49 16.5211 174.328 16.5211 174.16Z" fill="black"/>
<path d="M13.2866 15.1174C13.2866 16.3128 14.2107 17.2419 15.4111 17.2419C16.079 17.2419 16.7621 17.0209 17.0584 16.4333H17.1086C17.1086 17.1012 16.3754 17.6537 16.079 17.9651C15.7174 18.3418 15.9384 18.8641 16.4055 18.8641H19.5947C20.0567 18.8641 20.2777 18.3418 19.9161 17.9651C19.6198 17.6537 18.8865 17.1012 18.8865 16.4333H18.9417C19.233 17.0209 19.9211 17.2419 20.5841 17.2419C21.7844 17.2419 22.7136 16.3128 22.7136 15.1174C22.7136 12.8674 19.7202 11.9182 18.5199 9.49747C18.4194 9.29156 18.2637 9.13586 17.9976 9.13586C17.7314 9.13586 17.5807 9.29156 17.4752 9.49747C16.2749 11.9182 13.2866 12.8674 13.2866 15.1174Z" fill="black"/>
<path d="M122.713 173.883C122.713 172.687 121.789 171.758 120.589 171.758C119.921 171.758 119.238 171.979 118.942 172.567H118.891C118.891 171.899 119.625 171.346 119.921 171.035C120.283 170.658 120.062 170.136 119.595 170.136H116.405C115.943 170.136 115.722 170.658 116.084 171.035C116.38 171.346 117.113 171.899 117.113 172.567H117.058C116.767 171.979 116.079 171.758 115.416 171.758C114.216 171.758 113.286 172.687 113.286 173.883C113.286 176.133 116.28 177.082 117.48 179.503C117.581 179.708 117.736 179.864 118.002 179.864C118.269 179.864 118.419 179.708 118.525 179.503C119.725 177.082 122.713 176.133 122.713 173.883Z" fill="black"/>
<g clip-path="url(#clip0_102_160)">
<path d="M99.6592 137.248L102.76 135.822L101.335 138.923L102.76 142.024L99.6592 140.599L96.5576 142.024L97.9844 138.923L96.5576 135.821L99.6592 137.248ZM85.2939 136.309L85.8516 137.52L84.6396 136.963L83.4287 137.52L83.9844 136.309L83.4287 135.097L84.6396 135.654L85.8516 135.097L85.2939 136.309ZM99.8799 123.503C100.158 123.781 100.159 124.231 99.8799 124.51L91.6602 132.729C91.3814 133.008 90.9314 133.008 90.6533 132.729L61 103.076L69.3789 93L99.8799 123.503ZM104.191 128.905L104.749 130.116L103.537 129.56L102.325 130.116L102.883 128.905L102.325 127.693L103.537 128.251L104.749 127.693L104.191 128.905ZM83.0215 120.063L90.6543 127.696L94.8486 123.503L87.2148 115.869L83.0215 120.063Z" fill="black"/>
</g>
<g clip-path="url(#clip1_102_160)">
<path d="M35.3408 51.7519L32.2402 53.1777L33.665 50.0771L32.2402 46.9756L35.3408 48.4014L38.4424 46.9756L37.0156 50.0771L38.4424 53.1787L35.3408 51.7519ZM49.7061 52.6914L49.1484 51.4805L50.3604 52.0371L51.5713 51.4805L51.0156 52.6914L51.5713 53.9033L50.3604 53.3457L49.1484 53.9033L49.7061 52.6914ZM35.1201 65.4971C34.8421 65.219 34.8414 64.769 35.1201 64.4902L43.3398 56.2705C43.6186 55.9924 44.0686 55.9924 44.3467 56.2705L74 85.9238L65.6211 96L35.1201 65.4971ZM30.8086 60.0947L30.251 58.8838L31.4629 59.4404L32.6748 58.8838L32.1172 60.0947L32.6748 61.3066L31.4629 60.749L30.251 61.3066L30.8086 60.0947ZM51.9785 68.9365L44.3457 61.3037L40.1514 65.4971L47.7852 73.1309L51.9785 68.9365Z" fill="black"/>
</g>
<path d="M28 142L107 47" stroke="black" stroke-linecap="round"/>
<defs>
<clipPath id="clip0_102_160">
<rect width="60" height="60" fill="white" transform="matrix(1 0 0 -1 47 142)"/>
</clipPath>
<clipPath id="clip1_102_160">
<rect width="60" height="60" fill="white" transform="matrix(-1 0 0 1 88 47)"/>
</clipPath>
</defs>
</svg>
