<svg width="317" height="317" viewBox="0 0 317 317" fill="none" xmlns="http://www.w3.org/2000/svg">
<path d="M79.559 78.8312L123.522 89.1727L141.378 47.6898L170.866 81.8969L209.695 58.8322L213.445 103.839L258.416 108.002L234.995 146.618L268.93 176.419L227.284 193.893L237.221 237.949L193.259 227.608L175.402 269.091L145.914 234.883L107.085 257.948L103.335 212.941L58.3649 208.778L81.7855 170.163L47.8508 140.361L89.4961 122.887L79.559 78.8312Z" fill="#D6FB30"/>
<path d="M119.579 189.461C120.368 188.593 121.236 187.941 122.182 187.503C123.128 187.066 124.091 186.832 125.071 186.8C126.065 186.753 127.055 186.918 128.039 187.294C129.023 187.671 129.942 188.246 130.794 189.022C131.646 189.797 132.306 190.657 132.773 191.601C133.241 192.546 133.498 193.515 133.545 194.509C133.606 195.488 133.464 196.469 133.118 197.452C132.772 198.435 132.204 199.36 131.414 200.228C130.625 201.096 129.757 201.749 128.811 202.186C127.865 202.623 126.895 202.866 125.901 202.913C124.92 202.944 123.938 202.771 122.954 202.395C121.97 202.019 121.051 201.443 120.199 200.668C119.347 199.892 118.687 199.033 118.22 198.088C117.752 197.144 117.488 196.182 117.426 195.204C117.379 194.209 117.529 193.22 117.875 192.237C118.221 191.255 118.789 190.329 119.579 189.461ZM121.567 191.27C121.036 191.854 120.627 192.477 120.342 193.14C120.086 193.802 119.959 194.48 119.962 195.174C119.979 195.853 120.124 196.518 120.396 197.17C120.699 197.82 121.15 198.418 121.75 198.963C122.349 199.509 122.979 199.894 123.639 200.12C124.329 200.344 125.013 200.433 125.69 200.385C126.382 200.323 127.037 200.125 127.656 199.794C128.305 199.461 128.895 199.003 129.426 198.419C129.957 197.835 130.35 197.213 130.606 196.551C130.892 195.888 131.026 195.218 131.009 194.539C131.007 193.844 130.854 193.172 130.551 192.522C130.279 191.87 129.843 191.272 129.243 190.726C128.644 190.18 127.999 189.796 127.309 189.572C126.649 189.346 125.973 189.265 125.281 189.328C124.604 189.375 123.941 189.565 123.292 189.897C122.673 190.229 122.098 190.686 121.567 191.27ZM135.351 193.818L137.647 194.796L136.794 196.798L136.853 196.823C137.799 196.345 138.772 196.075 139.772 196.014C140.791 195.962 141.802 196.149 142.802 196.575C143.882 197.035 144.784 197.64 145.508 198.389C146.26 199.127 146.813 199.953 147.165 200.868C147.517 201.784 147.681 202.758 147.658 203.792C147.635 204.826 147.402 205.863 146.959 206.903C146.516 207.943 145.93 208.829 145.2 209.562C144.471 210.295 143.654 210.851 142.75 211.231C141.866 211.62 140.922 211.821 139.919 211.834C138.925 211.828 137.947 211.62 136.985 211.21C135.749 210.683 134.772 209.954 134.056 209.023C133.367 208.08 132.975 207.125 132.877 206.156L132.818 206.131L128.918 215.286L126.622 214.308L135.351 193.818ZM134.712 201.685C134.403 202.411 134.222 203.134 134.171 203.854C134.147 204.563 134.251 205.245 134.482 205.9C134.721 206.535 135.077 207.116 135.549 207.642C136.048 208.156 136.671 208.572 137.417 208.89C138.163 209.207 138.884 209.364 139.582 209.36C140.307 209.344 140.982 209.203 141.606 208.935C142.239 208.648 142.793 208.246 143.268 207.73C143.771 207.202 144.177 206.575 144.486 205.849C144.796 205.123 144.962 204.406 144.986 203.697C145.038 202.977 144.944 202.299 144.704 201.664C144.473 201.009 144.108 200.424 143.608 199.91C143.136 199.384 142.527 198.962 141.782 198.645C141.036 198.327 140.3 198.176 139.575 198.191C138.877 198.196 138.212 198.341 137.58 198.629C136.956 198.896 136.392 199.294 135.889 199.821C135.414 200.338 135.022 200.959 134.712 201.685ZM161.237 212.844C160.255 213.924 159.215 214.657 158.115 215.043C157.017 215.408 155.766 215.536 154.363 215.428C153.193 215.338 152.155 215.055 151.251 214.579C150.347 214.082 149.593 213.457 148.988 212.704C148.404 211.953 147.968 211.085 147.68 210.1C147.413 209.117 147.322 208.082 147.405 206.998C147.493 205.849 147.766 204.811 148.222 203.883C148.681 202.934 149.276 202.146 150.009 201.517C150.744 200.868 151.594 200.388 152.559 200.077C153.525 199.766 154.56 199.653 155.666 199.738C156.709 199.818 157.652 200.073 158.496 200.502C159.342 200.909 160.047 201.477 160.612 202.205C161.199 202.913 161.625 203.77 161.89 204.775C162.157 205.758 162.243 206.866 162.148 208.1L162.086 208.898L150.026 207.97C150.02 208.611 150.121 209.239 150.33 209.855C150.563 210.45 150.874 210.988 151.265 211.467C151.658 211.925 152.132 212.304 152.686 212.603C153.241 212.903 153.859 213.079 154.539 213.131C155.624 213.215 156.554 213.094 157.328 212.768C158.101 212.442 158.815 211.93 159.468 211.232L161.237 212.844ZM159.568 206.586C159.624 205.306 159.288 204.253 158.56 203.427C157.832 202.601 156.776 202.134 155.394 202.028C154.011 201.922 152.865 202.219 151.955 202.919C151.046 203.619 150.457 204.601 150.188 205.864L159.568 206.586ZM162.691 204.044C162.535 203.379 162.368 202.761 162.191 202.189C162.013 201.617 161.868 201.092 161.756 200.615L164.062 200.075C164.155 200.47 164.257 200.862 164.37 201.252C164.484 201.641 164.589 202.044 164.686 202.46L164.748 202.445C164.832 202.053 164.98 201.657 165.193 201.256C165.427 200.851 165.722 200.475 166.079 200.129C166.432 199.761 166.85 199.444 167.336 199.177C167.816 198.889 168.357 198.675 168.96 198.534C169.915 198.31 170.77 198.264 171.523 198.394C172.298 198.52 172.974 198.789 173.553 199.201C174.131 199.613 174.612 200.169 174.995 200.868C175.393 201.542 175.695 202.315 175.899 203.187L178.007 212.192L175.577 212.76L173.527 204.005C173.24 202.78 172.744 201.877 172.039 201.297C171.333 200.717 170.409 200.561 169.267 200.829C168.478 201.013 167.824 201.309 167.305 201.715C166.808 202.116 166.43 202.61 166.173 203.196C165.937 203.777 165.805 204.432 165.779 205.162C165.773 205.886 165.867 206.664 166.062 207.494L167.725 214.598L165.294 215.167L162.691 204.044ZM188.982 191.076L185.44 193.713L189.911 199.719C190.204 200.112 190.487 200.474 190.759 200.804C191.018 201.116 191.303 201.356 191.614 201.523C191.912 201.674 192.238 201.737 192.592 201.712C192.934 201.671 193.327 201.485 193.772 201.153C194.063 200.937 194.337 200.68 194.594 200.382C194.851 200.084 195.065 199.765 195.237 199.424L196.671 201.189C196.443 201.598 196.141 201.996 195.764 202.383C195.405 202.757 195.037 203.084 194.66 203.365C193.941 203.9 193.298 204.232 192.73 204.363C192.162 204.493 191.631 204.476 191.137 204.312C190.642 204.148 190.168 203.85 189.713 203.417C189.262 202.955 188.807 202.416 188.349 201.8L183.438 195.203L180.82 197.152L179.559 195.458L182.177 193.509L179.635 190.095L181.637 188.605L184.179 192.018L187.721 189.381L188.982 191.076ZM192.264 195.167C191.344 194.439 190.633 193.618 190.132 192.705C189.631 191.791 189.331 190.847 189.232 189.871C189.117 188.882 189.213 187.884 189.521 186.876C189.828 185.868 190.34 184.912 191.054 184.009C191.769 183.105 192.582 182.388 193.492 181.857C194.402 181.325 195.351 181.002 196.34 180.887C197.312 180.758 198.3 180.833 199.305 181.111C200.309 181.388 201.271 181.891 202.192 182.619C203.112 183.347 203.823 184.168 204.324 185.082C204.825 185.995 205.134 186.946 205.249 187.935C205.348 188.911 205.243 189.903 204.935 190.911C204.627 191.918 204.116 192.874 203.401 193.777C202.687 194.681 201.874 195.398 200.964 195.93C200.054 196.461 199.113 196.791 198.141 196.919C197.152 197.035 196.155 196.953 195.151 196.676C194.147 196.398 193.184 195.895 192.264 195.167ZM193.932 193.059C194.551 193.549 195.201 193.913 195.882 194.153C196.56 194.363 197.245 194.442 197.937 194.392C198.613 194.328 199.267 194.138 199.898 193.821C200.526 193.475 201.092 192.984 201.595 192.348C202.098 191.712 202.439 191.057 202.618 190.383C202.795 189.679 202.836 188.991 202.742 188.319C202.632 187.633 202.39 186.993 202.017 186.398C201.641 185.774 201.143 185.217 200.524 184.727C199.905 184.238 199.257 183.888 198.579 183.678C197.898 183.439 197.22 183.351 196.544 183.414C195.851 183.465 195.191 183.663 194.563 184.01C193.931 184.326 193.364 184.803 192.861 185.438C192.358 186.074 192.019 186.744 191.843 187.448C191.663 188.122 191.628 188.802 191.739 189.488C191.832 190.16 192.067 190.808 192.444 191.433C192.817 192.027 193.313 192.569 193.932 193.059ZM215.24 159.818L214.889 162.257L202.881 164.832L202.872 164.895L213.738 170.271L213.374 172.805L197.859 175.49L198.25 172.766L210.14 171.015L210.149 170.951L199.297 165.481L199.67 162.884L211.632 160.625L211.641 160.562L200.72 155.567L201.103 152.906L215.24 159.818ZM208.333 154.976C207.19 155.24 206.105 155.283 205.078 155.105C204.051 154.926 203.126 154.571 202.302 154.039C201.458 153.512 200.738 152.814 200.142 151.944C199.547 151.074 199.12 150.079 198.86 148.956C198.6 147.834 198.547 146.751 198.7 145.709C198.853 144.666 199.193 143.722 199.72 142.878C200.226 142.038 200.901 141.313 201.745 140.701C202.589 140.09 203.583 139.652 204.726 139.388C205.869 139.123 206.954 139.08 207.981 139.259C209.007 139.437 209.943 139.79 210.787 140.317C211.611 140.849 212.321 141.55 212.916 142.419C213.511 143.289 213.939 144.285 214.199 145.407C214.458 146.53 214.512 147.612 214.359 148.655C214.206 149.697 213.876 150.638 213.37 151.478C212.843 152.323 212.157 153.051 211.313 153.662C210.469 154.273 209.476 154.711 208.333 154.976ZM207.727 152.357C208.496 152.179 209.186 151.899 209.799 151.516C210.385 151.118 210.875 150.632 211.268 150.06C211.64 149.492 211.9 148.862 212.046 148.171C212.168 147.465 212.137 146.716 211.954 145.927C211.771 145.137 211.473 144.461 211.058 143.9C210.618 143.323 210.106 142.862 209.522 142.515C208.918 142.173 208.267 141.962 207.57 141.883C206.847 141.787 206.101 141.828 205.332 142.006C204.563 142.184 203.885 142.473 203.298 142.871C202.686 143.254 202.194 143.729 201.822 144.297C201.429 144.869 201.172 145.509 201.051 146.216C200.904 146.907 200.922 147.647 201.105 148.437C201.287 149.227 201.599 149.91 202.039 150.487C202.453 151.048 202.963 151.499 203.567 151.841C204.151 152.188 204.805 152.409 205.527 152.505C206.225 152.584 206.958 152.535 207.727 152.357ZM200.515 139.633C199.913 139.955 199.359 140.276 198.853 140.596C198.346 140.915 197.877 141.191 197.444 141.422L196.326 139.335C196.683 139.144 197.036 138.943 197.383 138.733C197.73 138.523 198.092 138.317 198.468 138.115L198.438 138.059C198.037 138.08 197.616 138.039 197.174 137.937C196.722 137.816 196.283 137.628 195.856 137.373C195.41 137.127 194.995 136.805 194.612 136.405C194.209 136.016 193.862 135.548 193.57 135.003C193.49 134.853 193.418 134.697 193.357 134.537C193.295 134.376 193.252 134.205 193.228 134.025L195.532 132.972C195.62 133.409 195.775 133.834 195.997 134.248C196.722 135.602 197.693 136.352 198.909 136.499C200.097 136.638 201.452 136.299 202.975 135.483L209.407 132.038L210.585 134.239L200.515 139.633ZM186.796 140.796L185.131 138.936L196.909 128.392L187.451 127.711L185.082 125.064L194.984 125.907L195.749 114.527L198.204 117.269L197.29 128.051L203.156 122.8L204.82 124.66L186.796 140.796Z" fill="black"/>
<path d="M110.679 167.846L111.793 152.45C111.883 151.381 111.871 150.295 111.757 149.192C111.661 148.071 111.292 147.085 110.651 146.234C110.28 145.723 109.857 145.347 109.383 145.108C108.909 144.868 108.426 144.755 107.934 144.77C107.442 144.751 106.949 144.85 106.456 145.069C105.963 145.287 105.503 145.607 105.077 146.03C104.19 146.908 103.668 147.916 103.51 149.052C103.352 150.188 103.559 151.335 104.131 152.491L101.294 154.846C100.722 153.825 100.362 152.813 100.214 151.811C100.066 150.776 100.087 149.774 100.278 148.808C100.469 147.841 100.822 146.918 101.335 146.038C101.848 145.158 102.497 144.329 103.281 143.552C104.065 142.775 104.891 142.177 105.758 141.756C106.626 141.302 107.501 141.06 108.384 141.03C109.249 140.983 110.097 141.174 110.927 141.602C111.756 141.996 112.525 142.67 113.234 143.623C113.74 144.305 114.127 145.036 114.395 145.818C114.663 146.566 114.846 147.347 114.944 148.163C115.042 148.978 115.072 149.809 115.034 150.658C115.013 151.489 114.967 152.329 114.895 153.177L113.82 165.646L122.924 156.625L124.771 159.052L112.905 170.809L110.679 167.846ZM119.091 146.739C118.248 145.615 117.448 144.347 116.69 142.935C115.916 141.506 115.363 140.044 115.03 138.549C114.715 137.037 114.713 135.535 115.026 134.043C115.321 132.534 116.108 131.146 117.387 129.879C118.239 129.035 119.107 128.462 119.991 128.16C120.875 127.825 121.75 127.702 122.615 127.79C123.463 127.862 124.302 128.112 125.132 128.54C125.978 128.951 126.782 129.473 127.543 130.104C128.304 130.702 129.022 131.375 129.697 132.125C130.373 132.875 130.997 133.625 131.571 134.374C132.38 135.464 133.164 136.715 133.921 138.127C134.678 139.539 135.223 141.009 135.555 142.538C135.905 144.05 135.932 145.561 135.636 147.07C135.358 148.562 134.579 149.941 133.301 151.208C132.022 152.475 130.712 153.165 129.371 153.278C128.047 153.373 126.75 153.121 125.48 152.522C124.227 151.905 123.051 151.059 121.953 149.985C120.855 148.911 119.901 147.829 119.091 146.739ZM121.546 144.307C122.052 144.988 122.685 145.763 123.445 146.632C124.221 147.484 125.067 148.218 125.98 148.833C126.877 149.431 127.8 149.783 128.75 149.889C129.717 149.978 130.627 149.601 131.479 148.756C132.332 147.912 132.786 146.938 132.842 145.835C132.898 144.732 132.733 143.628 132.348 142.523C131.946 141.401 131.433 140.338 130.81 139.334C130.186 138.33 129.622 137.488 129.116 136.806C128.761 136.347 128.356 135.836 127.901 135.273C127.428 134.694 126.922 134.149 126.381 133.637C125.823 133.109 125.249 132.648 124.656 132.255C124.064 131.828 123.455 131.536 122.828 131.381C122.2 131.191 121.581 131.163 120.97 131.296C120.358 131.429 119.771 131.774 119.208 132.331C118.356 133.176 117.902 134.15 117.846 135.253C117.773 136.338 117.929 137.434 118.314 138.539C118.683 139.626 119.178 140.689 119.802 141.728C120.425 142.732 121.006 143.591 121.546 144.307ZM139.098 139.686L140.213 124.291C140.302 123.222 140.29 122.136 140.177 121.032C140.08 119.912 139.711 118.926 139.07 118.074C138.699 117.563 138.277 117.188 137.803 116.948C137.328 116.708 136.845 116.596 136.353 116.611C135.861 116.591 135.368 116.691 134.875 116.909C134.382 117.128 133.922 117.448 133.496 117.87C132.61 118.749 132.087 119.756 131.93 120.892C131.772 122.029 131.978 123.175 132.55 124.332L129.714 126.686C129.141 125.665 128.781 124.654 128.633 123.652C128.485 122.616 128.507 121.615 128.698 120.648C128.889 119.682 129.241 118.759 129.754 117.879C130.267 116.998 130.916 116.17 131.7 115.393C132.484 114.616 133.31 114.017 134.178 113.597C135.045 113.143 135.92 112.9 136.803 112.871C137.669 112.824 138.516 113.014 139.346 113.442C140.176 113.836 140.945 114.51 141.653 115.464C142.159 116.145 142.546 116.877 142.814 117.659C143.082 118.406 143.265 119.188 143.363 120.003C143.462 120.818 143.492 121.65 143.454 122.498C143.433 123.33 143.387 124.169 143.315 125.018L142.239 137.486L151.343 128.466L153.19 130.892L141.325 142.65L139.098 139.686ZM152.943 99.818L145.603 107.09L149.372 112.326C149.458 112.14 149.586 111.911 149.757 111.64C149.928 111.37 150.116 111.099 150.321 110.828C150.543 110.541 150.756 110.279 150.961 110.042C151.166 109.806 151.345 109.611 151.498 109.459C152.351 108.615 153.244 108.016 154.18 107.664C155.115 107.312 156.048 107.198 156.981 107.321C157.931 107.427 158.846 107.77 159.726 108.351C160.623 108.916 161.451 109.7 162.21 110.705C162.969 111.744 163.49 112.849 163.773 114.021C164.073 115.177 164.161 116.34 164.037 117.51C163.913 118.68 163.585 119.816 163.054 120.917C162.523 121.983 161.814 122.956 160.927 123.834C159.7 125.051 158.322 125.791 156.793 126.055C155.265 126.32 153.79 125.991 152.369 125.068L154.141 121.639C155.156 122.289 156.097 122.556 156.963 122.441C157.829 122.293 158.671 121.813 159.489 121.002C159.967 120.529 160.343 119.988 160.617 119.378C160.908 118.751 161.081 118.107 161.135 117.446C161.189 116.75 161.107 116.054 160.89 115.357C160.69 114.644 160.345 113.955 159.856 113.291C158.726 111.809 157.473 111.09 156.098 111.135C154.74 111.163 153.414 111.818 152.118 113.102C151.879 113.339 151.632 113.635 151.376 113.99C151.103 114.328 150.838 114.709 150.581 115.132C150.308 115.538 150.051 115.978 149.812 116.452C149.572 116.926 149.366 117.4 149.194 117.875L141.277 106.816L143.655 104.459L150.995 97.187L152.943 99.818Z" fill="black"/>
</svg>
